<?xml version="1.0" encoding="UTF-8"?>
<svg xmlns="http://www.w3.org/2000/svg" xmlns:xlink="http://www.w3.org/1999/xlink" width="1200pt" height="600pt" viewBox="0 0 1200 600" version="1.1">
<g id="surface6">
<rect x="0" y="0" width="1200" height="600" style="fill:rgb(97.647059%,97.647059%,97.647059%);fill-opacity:1;stroke:none;"/>
<path style=" stroke:none;fill-rule:nonzero;fill:rgb(100%,100%,100%);fill-opacity:1;" d="M 153.75 15 L 1184.851562 15 L 1184.851562 550.5 L 153.75 550.5 Z M 153.75 15 "/>
<path style="fill:none;stroke-width:1;stroke-linecap:butt;stroke-linejoin:miter;stroke:rgb(0%,0%,0%);stroke-opacity:0.87;stroke-miterlimit:4;" d="M 0 700.270833 L 1374.802083 700.270833 " transform="matrix(0.75,0,0,0.75,153.75,15)"/>
<path style=" stroke:none;fill-rule:nonzero;fill:rgb(0%,0%,0%);fill-opacity:1;" d="M 147.984375 537.515625 C 147.578125 537.515625 147.269531 537.71875 147.0625 538.125 C 146.863281 538.523438 146.765625 539.121094 146.765625 539.921875 C 146.765625 540.714844 146.863281 541.3125 147.0625 541.71875 C 147.269531 542.117188 147.578125 542.3125 147.984375 542.3125 C 148.390625 542.3125 148.691406 542.117188 148.890625 541.71875 C 149.097656 541.3125 149.203125 540.714844 149.203125 539.921875 C 149.203125 539.121094 149.097656 538.523438 148.890625 538.125 C 148.691406 537.71875 148.390625 537.515625 147.984375 537.515625 Z M 147.984375 536.890625 C 148.640625 536.890625 149.140625 537.152344 149.484375 537.671875 C 149.828125 538.183594 150 538.933594 150 539.921875 C 150 540.902344 149.828125 541.652344 149.484375 542.171875 C 149.140625 542.683594 148.640625 542.9375 147.984375 542.9375 C 147.328125 542.9375 146.828125 542.683594 146.484375 542.171875 C 146.140625 541.652344 145.96875 540.902344 145.96875 539.921875 C 145.96875 538.933594 146.140625 538.183594 146.484375 537.671875 C 146.828125 537.152344 147.328125 536.890625 147.984375 536.890625 Z M 150.527344 542.828125 "/>
<path style="fill:none;stroke-width:1;stroke-linecap:butt;stroke-linejoin:miter;stroke:rgb(0%,0%,0%);stroke-opacity:0.54;stroke-dasharray:4,4;stroke-miterlimit:4;" d="M 0 585.84375 L 1374.802083 585.84375 " transform="matrix(0.75,0,0,0.75,153.75,15)"/>
<path style=" stroke:none;fill-rule:nonzero;fill:rgb(0%,0%,0%);fill-opacity:0.87;" d="M 140.554688 451.695312 C 140.148438 451.695312 139.839844 451.898438 139.632812 452.304688 C 139.433594 452.703125 139.335938 453.300781 139.335938 454.101562 C 139.335938 454.894531 139.433594 455.492188 139.632812 455.898438 C 139.839844 456.296875 140.148438 456.492188 140.554688 456.492188 C 140.960938 456.492188 141.261719 456.296875 141.460938 455.898438 C 141.667969 455.492188 141.773438 454.894531 141.773438 454.101562 C 141.773438 453.300781 141.667969 452.703125 141.460938 452.304688 C 141.261719 451.898438 140.960938 451.695312 140.554688 451.695312 Z M 140.554688 451.070312 C 141.210938 451.070312 141.710938 451.332031 142.054688 451.851562 C 142.398438 452.363281 142.570312 453.113281 142.570312 454.101562 C 142.570312 455.082031 142.398438 455.832031 142.054688 456.351562 C 141.710938 456.863281 141.210938 457.117188 140.554688 457.117188 C 139.898438 457.117188 139.398438 456.863281 139.054688 456.351562 C 138.710938 455.832031 138.539062 455.082031 138.539062 454.101562 C 138.539062 453.113281 138.710938 452.363281 139.054688 451.851562 C 139.398438 451.332031 139.898438 451.070312 140.554688 451.070312 Z M 143.957031 456.007812 L 144.785156 456.007812 L 144.785156 457.007812 L 143.957031 457.007812 Z M 146.640625 456.335938 L 147.921875 456.335938 L 147.921875 451.898438 L 146.515625 452.179688 L 146.515625 451.460938 L 147.921875 451.179688 L 148.703125 451.179688 L 148.703125 456.335938 L 150 456.335938 L 150 457.007812 L 146.640625 457.007812 Z M 150.730469 457.007812 "/>
<path style="fill:none;stroke-width:1;stroke-linecap:butt;stroke-linejoin:miter;stroke:rgb(0%,0%,0%);stroke-opacity:0.54;stroke-dasharray:4,4;stroke-miterlimit:4;" d="M 0 471.421875 L 1374.802083 471.421875 " transform="matrix(0.75,0,0,0.75,153.75,15)"/>
<path style=" stroke:none;fill-rule:nonzero;fill:rgb(0%,0%,0%);fill-opacity:0.87;" d="M 140.617188 365.878906 C 140.210938 365.878906 139.902344 366.082031 139.695312 366.488281 C 139.496094 366.886719 139.398438 367.484375 139.398438 368.285156 C 139.398438 369.078125 139.496094 369.675781 139.695312 370.082031 C 139.902344 370.480469 140.210938 370.675781 140.617188 370.675781 C 141.023438 370.675781 141.324219 370.480469 141.523438 370.082031 C 141.730469 369.675781 141.835938 369.078125 141.835938 368.285156 C 141.835938 367.484375 141.730469 366.886719 141.523438 366.488281 C 141.324219 366.082031 141.023438 365.878906 140.617188 365.878906 Z M 140.617188 365.253906 C 141.273438 365.253906 141.773438 365.515625 142.117188 366.035156 C 142.460938 366.546875 142.632812 367.296875 142.632812 368.285156 C 142.632812 369.265625 142.460938 370.015625 142.117188 370.535156 C 141.773438 371.046875 141.273438 371.300781 140.617188 371.300781 C 139.960938 371.300781 139.460938 371.046875 139.117188 370.535156 C 138.773438 370.015625 138.601562 369.265625 138.601562 368.285156 C 138.601562 367.296875 138.773438 366.546875 139.117188 366.035156 C 139.460938 365.515625 139.960938 365.253906 140.617188 365.253906 Z M 144.019531 370.191406 L 144.847656 370.191406 L 144.847656 371.191406 L 144.019531 371.191406 Z M 147.234375 370.519531 L 150 370.519531 L 150 371.191406 L 146.296875 371.191406 L 146.296875 370.519531 C 146.585938 370.21875 146.992188 369.808594 147.515625 369.285156 C 148.035156 368.753906 148.359375 368.417969 148.484375 368.269531 C 148.742188 367.988281 148.921875 367.75 149.015625 367.550781 C 149.117188 367.355469 149.171875 367.160156 149.171875 366.972656 C 149.171875 366.660156 149.0625 366.40625 148.84375 366.207031 C 148.625 366.011719 148.34375 365.910156 148 365.910156 C 147.75 365.910156 147.484375 365.957031 147.203125 366.050781 C 146.929688 366.136719 146.640625 366.265625 146.328125 366.441406 L 146.328125 365.644531 C 146.648438 365.511719 146.945312 365.410156 147.21875 365.347656 C 147.5 365.285156 147.753906 365.253906 147.984375 365.253906 C 148.585938 365.253906 149.066406 365.40625 149.421875 365.707031 C 149.785156 366.011719 149.96875 366.410156 149.96875 366.910156 C 149.96875 367.152344 149.921875 367.378906 149.828125 367.597656 C 149.734375 367.816406 149.570312 368.074219 149.34375 368.363281 C 149.269531 368.4375 149.054688 368.65625 148.703125 369.019531 C 148.359375 369.375 147.867188 369.875 147.234375 370.519531 Z M 150.792969 371.191406 "/>
<path style="fill:none;stroke-width:1;stroke-linecap:butt;stroke-linejoin:miter;stroke:rgb(0%,0%,0%);stroke-opacity:0.54;stroke-dasharray:4,4;stroke-miterlimit:4;" d="M 0 357 L 1374.802083 357 " transform="matrix(0.75,0,0,0.75,153.75,15)"/>
<path style=" stroke:none;fill-rule:nonzero;fill:rgb(0%,0%,0%);fill-opacity:0.87;" d="M 140.460938 280.0625 C 140.054688 280.0625 139.746094 280.265625 139.539062 280.671875 C 139.339844 281.070312 139.242188 281.667969 139.242188 282.46875 C 139.242188 283.261719 139.339844 283.859375 139.539062 284.265625 C 139.746094 284.664062 140.054688 284.859375 140.460938 284.859375 C 140.867188 284.859375 141.167969 284.664062 141.367188 284.265625 C 141.574219 283.859375 141.679688 283.261719 141.679688 282.46875 C 141.679688 281.667969 141.574219 281.070312 141.367188 280.671875 C 141.167969 280.265625 140.867188 280.0625 140.460938 280.0625 Z M 140.460938 279.4375 C 141.117188 279.4375 141.617188 279.699219 141.960938 280.21875 C 142.304688 280.730469 142.476562 281.480469 142.476562 282.46875 C 142.476562 283.449219 142.304688 284.199219 141.960938 284.71875 C 141.617188 285.230469 141.117188 285.484375 140.460938 285.484375 C 139.804688 285.484375 139.304688 285.230469 138.960938 284.71875 C 138.617188 284.199219 138.445312 283.449219 138.445312 282.46875 C 138.445312 281.480469 138.617188 280.730469 138.960938 280.21875 C 139.304688 279.699219 139.804688 279.4375 140.460938 279.4375 Z M 143.863281 284.375 L 144.691406 284.375 L 144.691406 285.375 L 143.863281 285.375 Z M 148.796875 282.234375 C 149.171875 282.308594 149.460938 282.476562 149.671875 282.734375 C 149.890625 282.984375 150 283.296875 150 283.671875 C 150 284.257812 149.800781 284.703125 149.40625 285.015625 C 149.007812 285.328125 148.445312 285.484375 147.71875 285.484375 C 147.46875 285.484375 147.210938 285.457031 146.953125 285.40625 C 146.703125 285.367188 146.4375 285.296875 146.15625 285.203125 L 146.15625 284.4375 C 146.375 284.5625 146.613281 284.664062 146.875 284.734375 C 147.132812 284.796875 147.40625 284.828125 147.6875 284.828125 C 148.1875 284.828125 148.566406 284.730469 148.828125 284.53125 C 149.085938 284.335938 149.21875 284.046875 149.21875 283.671875 C 149.21875 283.328125 149.09375 283.0625 148.84375 282.875 C 148.601562 282.679688 148.269531 282.578125 147.84375 282.578125 L 147.171875 282.578125 L 147.171875 281.9375 L 147.875 281.9375 C 148.257812 281.9375 148.554688 281.859375 148.765625 281.703125 C 148.972656 281.546875 149.078125 281.324219 149.078125 281.03125 C 149.078125 280.730469 148.96875 280.5 148.75 280.34375 C 148.539062 280.179688 148.238281 280.09375 147.84375 280.09375 C 147.625 280.09375 147.390625 280.121094 147.140625 280.171875 C 146.898438 280.214844 146.628906 280.289062 146.328125 280.390625 L 146.328125 279.6875 C 146.628906 279.605469 146.910156 279.542969 147.171875 279.5 C 147.429688 279.460938 147.679688 279.4375 147.921875 279.4375 C 148.515625 279.4375 148.984375 279.574219 149.328125 279.84375 C 149.679688 280.117188 149.859375 280.484375 149.859375 280.953125 C 149.859375 281.277344 149.765625 281.546875 149.578125 281.765625 C 149.398438 281.984375 149.140625 282.140625 148.796875 282.234375 Z M 150.636719 285.375 "/>
<path style="fill:none;stroke-width:1;stroke-linecap:butt;stroke-linejoin:miter;stroke:rgb(0%,0%,0%);stroke-opacity:0.54;stroke-dasharray:4,4;stroke-miterlimit:4;" d="M 0 242.578125 L 1374.802083 242.578125 " transform="matrix(0.75,0,0,0.75,153.75,15)"/>
<path style=" stroke:none;fill-rule:nonzero;fill:rgb(0%,0%,0%);fill-opacity:0.87;" d="M 140.273438 194.246094 C 139.867188 194.246094 139.558594 194.449219 139.351562 194.855469 C 139.152344 195.253906 139.054688 195.851562 139.054688 196.652344 C 139.054688 197.445312 139.152344 198.042969 139.351562 198.449219 C 139.558594 198.847656 139.867188 199.042969 140.273438 199.042969 C 140.679688 199.042969 140.980469 198.847656 141.179688 198.449219 C 141.386719 198.042969 141.492188 197.445312 141.492188 196.652344 C 141.492188 195.851562 141.386719 195.253906 141.179688 194.855469 C 140.980469 194.449219 140.679688 194.246094 140.273438 194.246094 Z M 140.273438 193.621094 C 140.929688 193.621094 141.429688 193.882812 141.773438 194.402344 C 142.117188 194.914062 142.289062 195.664062 142.289062 196.652344 C 142.289062 197.632812 142.117188 198.382812 141.773438 198.902344 C 141.429688 199.414062 140.929688 199.667969 140.273438 199.667969 C 139.617188 199.667969 139.117188 199.414062 138.773438 198.902344 C 138.429688 198.382812 138.257812 197.632812 138.257812 196.652344 C 138.257812 195.664062 138.429688 194.914062 138.773438 194.402344 C 139.117188 193.882812 139.617188 193.621094 140.273438 193.621094 Z M 143.675781 198.558594 L 144.503906 198.558594 L 144.503906 199.558594 L 143.675781 199.558594 Z M 148.390625 194.417969 L 146.390625 197.527344 L 148.390625 197.527344 Z M 148.171875 193.730469 L 149.171875 193.730469 L 149.171875 197.527344 L 150 197.527344 L 150 198.183594 L 149.171875 198.183594 L 149.171875 199.558594 L 148.390625 199.558594 L 148.390625 198.183594 L 145.75 198.183594 L 145.75 197.417969 Z M 150.449219 199.558594 "/>
<path style="fill:none;stroke-width:1;stroke-linecap:butt;stroke-linejoin:miter;stroke:rgb(0%,0%,0%);stroke-opacity:0.87;stroke-dasharray:6,6;stroke-miterlimit:4;" d="M 0 128.15625 L 1374.802083 128.15625 " transform="matrix(0.75,0,0,0.75,153.75,15)"/>
<path style=" stroke:none;fill-rule:nonzero;fill:rgb(0%,0%,0%);fill-opacity:1;" d="M 140.523438 108.429688 C 140.117188 108.429688 139.808594 108.632812 139.601562 109.039062 C 139.402344 109.4375 139.304688 110.035156 139.304688 110.835938 C 139.304688 111.628906 139.402344 112.226562 139.601562 112.632812 C 139.808594 113.03125 140.117188 113.226562 140.523438 113.226562 C 140.929688 113.226562 141.230469 113.03125 141.429688 112.632812 C 141.636719 112.226562 141.742188 111.628906 141.742188 110.835938 C 141.742188 110.035156 141.636719 109.4375 141.429688 109.039062 C 141.230469 108.632812 140.929688 108.429688 140.523438 108.429688 Z M 140.523438 107.804688 C 141.179688 107.804688 141.679688 108.066406 142.023438 108.585938 C 142.367188 109.097656 142.539062 109.847656 142.539062 110.835938 C 142.539062 111.816406 142.367188 112.566406 142.023438 113.085938 C 141.679688 113.597656 141.179688 113.851562 140.523438 113.851562 C 139.867188 113.851562 139.367188 113.597656 139.023438 113.085938 C 138.679688 112.566406 138.507812 111.816406 138.507812 110.835938 C 138.507812 109.847656 138.679688 109.097656 139.023438 108.585938 C 139.367188 108.066406 139.867188 107.804688 140.523438 107.804688 Z M 143.925781 112.742188 L 144.753906 112.742188 L 144.753906 113.742188 L 143.925781 113.742188 Z M 146.46875 107.914062 L 149.578125 107.914062 L 149.578125 108.570312 L 147.203125 108.570312 L 147.203125 110.007812 C 147.316406 109.96875 147.429688 109.9375 147.546875 109.914062 C 147.660156 109.894531 147.773438 109.882812 147.890625 109.882812 C 148.535156 109.882812 149.046875 110.066406 149.421875 110.429688 C 149.804688 110.785156 150 111.265625 150 111.867188 C 150 112.492188 149.800781 112.984375 149.40625 113.335938 C 149.019531 113.679688 148.472656 113.851562 147.765625 113.851562 C 147.515625 113.851562 147.265625 113.828125 147.015625 113.789062 C 146.765625 113.746094 146.503906 113.6875 146.234375 113.601562 L 146.234375 112.804688 C 146.460938 112.941406 146.703125 113.039062 146.953125 113.101562 C 147.203125 113.164062 147.46875 113.195312 147.75 113.195312 C 148.195312 113.195312 148.550781 113.078125 148.8125 112.835938 C 149.082031 112.597656 149.21875 112.273438 149.21875 111.867188 C 149.21875 111.460938 149.082031 111.144531 148.8125 110.914062 C 148.550781 110.675781 148.195312 110.554688 147.75 110.554688 C 147.539062 110.554688 147.328125 110.582031 147.109375 110.632812 C 146.898438 110.675781 146.6875 110.742188 146.46875 110.835938 Z M 150.699219 113.742188 "/>
<path style="fill:none;stroke-width:1;stroke-linecap:butt;stroke-linejoin:miter;stroke:rgb(0%,0%,0%);stroke-opacity:0.54;stroke-dasharray:4,4;stroke-miterlimit:4;" d="M 0 13.729167 L 1374.802083 13.729167 " transform="matrix(0.75,0,0,0.75,153.75,15)"/>
<path style=" stroke:none;fill-rule:nonzero;fill:rgb(0%,0%,0%);fill-opacity:0.87;" d="M 140.320312 22.609375 C 139.914062 22.609375 139.605469 22.8125 139.398438 23.21875 C 139.199219 23.617188 139.101562 24.214844 139.101562 25.015625 C 139.101562 25.808594 139.199219 26.40625 139.398438 26.8125 C 139.605469 27.210938 139.914062 27.40625 140.320312 27.40625 C 140.726562 27.40625 141.027344 27.210938 141.226562 26.8125 C 141.433594 26.40625 141.539062 25.808594 141.539062 25.015625 C 141.539062 24.214844 141.433594 23.617188 141.226562 23.21875 C 141.027344 22.8125 140.726562 22.609375 140.320312 22.609375 Z M 140.320312 21.984375 C 140.976562 21.984375 141.476562 22.246094 141.820312 22.765625 C 142.164062 23.277344 142.335938 24.027344 142.335938 25.015625 C 142.335938 25.996094 142.164062 26.746094 141.820312 27.265625 C 141.476562 27.777344 140.976562 28.03125 140.320312 28.03125 C 139.664062 28.03125 139.164062 27.777344 138.820312 27.265625 C 138.476562 26.746094 138.304688 25.996094 138.304688 25.015625 C 138.304688 24.027344 138.476562 23.277344 138.820312 22.765625 C 139.164062 22.246094 139.664062 21.984375 140.320312 21.984375 Z M 143.722656 26.921875 L 144.550781 26.921875 L 144.550781 27.921875 L 143.722656 27.921875 Z M 148.046875 24.6875 C 147.691406 24.6875 147.410156 24.8125 147.203125 25.0625 C 146.992188 25.304688 146.890625 25.632812 146.890625 26.046875 C 146.890625 26.464844 146.992188 26.796875 147.203125 27.046875 C 147.410156 27.289062 147.691406 27.40625 148.046875 27.40625 C 148.398438 27.40625 148.679688 27.289062 148.890625 27.046875 C 149.097656 26.796875 149.203125 26.464844 149.203125 26.046875 C 149.203125 25.632812 149.097656 25.304688 148.890625 25.0625 C 148.679688 24.8125 148.398438 24.6875 148.046875 24.6875 Z M 149.609375 22.21875 L 149.609375 22.9375 C 149.410156 22.84375 149.210938 22.773438 149.015625 22.71875 C 148.816406 22.667969 148.617188 22.640625 148.421875 22.640625 C 147.898438 22.640625 147.5 22.820312 147.21875 23.171875 C 146.945312 23.527344 146.789062 24.058594 146.75 24.765625 C 146.90625 24.539062 147.097656 24.367188 147.328125 24.25 C 147.554688 24.125 147.8125 24.0625 148.09375 24.0625 C 148.675781 24.0625 149.140625 24.242188 149.484375 24.59375 C 149.828125 24.949219 150 25.433594 150 26.046875 C 150 26.652344 149.820312 27.136719 149.46875 27.5 C 149.113281 27.855469 148.640625 28.03125 148.046875 28.03125 C 147.367188 28.03125 146.851562 27.777344 146.5 27.265625 C 146.144531 26.746094 145.96875 25.996094 145.96875 25.015625 C 145.96875 24.089844 146.1875 23.355469 146.625 22.8125 C 147.0625 22.261719 147.648438 21.984375 148.390625 21.984375 C 148.585938 21.984375 148.785156 22.007812 148.984375 22.046875 C 149.179688 22.078125 149.390625 22.136719 149.609375 22.21875 Z M 150.496094 27.921875 "/>
<path style="fill:none;stroke-width:1;stroke-linecap:butt;stroke-linejoin:miter;stroke:rgb(0%,0%,0%);stroke-opacity:1;stroke-miterlimit:4;" d="M 26.4375 0 L 26.4375 714 " transform="matrix(0.75,0,0,0.75,153.75,15)"/>
<path style=" stroke:none;fill-rule:nonzero;fill:rgb(0%,0%,0%);fill-opacity:0.87;" d="M 170.730469 563.660156 L 171.636719 562.753906 L 168.496094 559.613281 L 167.714844 560.800781 L 167.199219 560.285156 L 167.980469 559.097656 L 168.542969 558.535156 L 172.199219 562.191406 L 173.105469 561.285156 L 173.574219 561.753906 L 171.199219 564.128906 Z M 174.09375 561.234375 "/>
<path style=" stroke:none;fill-rule:nonzero;fill:rgb(0%,0%,0%);fill-opacity:0.87;" d="M 281.308594 563.242188 L 283.261719 561.289062 L 283.730469 561.757812 L 281.121094 564.367188 L 280.652344 563.898438 C 280.644531 563.472656 280.636719 562.894531 280.636719 562.164062 C 280.628906 561.425781 280.617188 560.957031 280.605469 560.757812 C 280.597656 560.375 280.554688 560.078125 280.480469 559.867188 C 280.410156 559.660156 280.304688 559.488281 280.167969 559.351562 C 279.949219 559.132812 279.695312 559.035156 279.402344 559.054688 C 279.101562 559.066406 278.832031 559.191406 278.589844 559.429688 C 278.414062 559.609375 278.257812 559.828125 278.121094 560.085938 C 277.988281 560.347656 277.871094 560.648438 277.777344 560.992188 L 277.214844 560.429688 C 277.351562 560.109375 277.496094 559.828125 277.652344 559.585938 C 277.800781 559.335938 277.949219 559.132812 278.105469 558.976562 C 278.535156 558.550781 278.980469 558.316406 279.449219 558.273438 C 279.917969 558.234375 280.332031 558.390625 280.683594 558.742188 C 280.859375 558.921875 280.988281 559.117188 281.074219 559.335938 C 281.15625 559.554688 281.222656 559.847656 281.277344 560.210938 C 281.277344 560.316406 281.277344 560.625 281.277344 561.132812 C 281.285156 561.632812 281.296875 562.335938 281.308594 563.242188 Z M 284.296875 561.191406 "/>
<path style=" stroke:none;fill-rule:nonzero;fill:rgb(0%,0%,0%);fill-opacity:0.87;" d="M 390.828125 560.382812 C 391.148438 560.164062 391.472656 560.070312 391.796875 560.101562 C 392.128906 560.125 392.429688 560.269531 392.703125 560.539062 C 393.117188 560.957031 393.296875 561.414062 393.234375 561.914062 C 393.171875 562.414062 392.878906 562.925781 392.359375 563.445312 C 392.179688 563.625 391.988281 563.785156 391.78125 563.929688 C 391.570312 564.078125 391.332031 564.210938 391.0625 564.335938 L 390.53125 563.804688 C 390.757812 563.742188 390.988281 563.644531 391.21875 563.507812 C 391.457031 563.363281 391.675781 563.191406 391.875 562.992188 C 392.226562 562.640625 392.425781 562.300781 392.46875 561.976562 C 392.507812 561.65625 392.398438 561.363281 392.140625 561.101562 C 391.898438 560.863281 391.625 560.757812 391.3125 560.789062 C 391 560.820312 390.695312 560.988281 390.390625 561.289062 L 389.921875 561.757812 L 389.46875 561.304688 L 389.953125 560.820312 C 390.234375 560.539062 390.398438 560.273438 390.4375 560.023438 C 390.46875 559.765625 390.382812 559.53125 390.171875 559.320312 C 389.964844 559.113281 389.730469 559.03125 389.46875 559.070312 C 389.199219 559.101562 388.921875 559.257812 388.640625 559.539062 C 388.484375 559.695312 388.339844 559.878906 388.203125 560.085938 C 388.058594 560.285156 387.914062 560.53125 387.765625 560.820312 L 387.28125 560.335938 C 387.4375 560.054688 387.59375 559.8125 387.75 559.601562 C 387.898438 559.382812 388.054688 559.191406 388.21875 559.023438 C 388.648438 558.597656 389.078125 558.359375 389.515625 558.304688 C 389.953125 558.253906 390.339844 558.394531 390.671875 558.726562 C 390.898438 558.957031 391.023438 559.21875 391.046875 559.507812 C 391.078125 559.789062 391.003906 560.082031 390.828125 560.382812 Z M 394.347656 561.300781 "/>
<path style=" stroke:none;fill-rule:nonzero;fill:rgb(0%,0%,0%);fill-opacity:0.87;" d="M 499.277344 559.25 L 500.074219 562.859375 L 501.480469 561.453125 Z M 498.636719 558.921875 L 499.355469 558.203125 L 502.042969 560.890625 L 502.621094 560.3125 L 503.089844 560.78125 L 502.511719 561.359375 L 503.480469 562.328125 L 502.917969 562.890625 L 501.949219 561.921875 L 500.089844 563.78125 L 499.542969 563.234375 Z M 504.375 561.433594 "/>
<path style=" stroke:none;fill-rule:nonzero;fill:rgb(0%,0%,0%);fill-opacity:0.87;" d="M 607.597656 560.121094 L 609.800781 557.917969 L 610.269531 558.386719 L 608.582031 560.074219 L 609.597656 561.089844 C 609.652344 560.976562 609.707031 560.871094 609.769531 560.777344 C 609.832031 560.683594 609.90625 560.597656 609.988281 560.511719 C 610.449219 560.054688 610.9375 559.820312 611.457031 559.808594 C 611.988281 559.789062 612.464844 559.992188 612.894531 560.417969 C 613.339844 560.867188 613.550781 561.351562 613.519531 561.871094 C 613.488281 562.394531 613.222656 562.902344 612.722656 563.402344 C 612.542969 563.582031 612.351562 563.742188 612.144531 563.886719 C 611.933594 564.035156 611.707031 564.179688 611.457031 564.324219 L 610.894531 563.761719 C 611.152344 563.691406 611.394531 563.585938 611.613281 563.449219 C 611.832031 563.316406 612.039062 563.148438 612.238281 562.949219 C 612.550781 562.636719 612.714844 562.304688 612.738281 561.949219 C 612.757812 561.597656 612.621094 561.273438 612.332031 560.980469 C 612.050781 560.699219 611.730469 560.570312 611.378906 560.589844 C 611.027344 560.613281 610.691406 560.777344 610.378906 561.089844 C 610.234375 561.238281 610.105469 561.402344 609.988281 561.589844 C 609.863281 561.769531 609.753906 561.964844 609.660156 562.183594 Z M 614.710938 561.257812 "/>
<path style=" stroke:none;fill-rule:nonzero;fill:rgb(0%,0%,0%);fill-opacity:0.87;" d="M 720.707031 560.859375 C 720.457031 561.109375 720.347656 561.398438 720.378906 561.71875 C 720.402344 562.03125 720.558594 562.335938 720.847656 562.625 C 721.136719 562.917969 721.445312 563.078125 721.769531 563.109375 C 722.089844 563.140625 722.378906 563.03125 722.628906 562.78125 C 722.886719 562.523438 723.003906 562.230469 722.972656 561.90625 C 722.941406 561.585938 722.777344 561.277344 722.488281 560.984375 C 722.195312 560.695312 721.886719 560.539062 721.566406 560.515625 C 721.253906 560.484375 720.96875 560.601562 720.707031 560.859375 Z M 720.066406 558 L 720.566406 558.5 C 720.371094 558.574219 720.183594 558.664062 720.003906 558.765625 C 719.828125 558.871094 719.667969 558.996094 719.519531 559.140625 C 719.15625 559.507812 719.003906 559.914062 719.066406 560.359375 C 719.121094 560.796875 719.378906 561.28125 719.847656 561.8125 C 719.796875 561.554688 719.8125 561.296875 719.894531 561.046875 C 719.96875 560.789062 720.105469 560.558594 720.300781 560.359375 C 720.707031 559.953125 721.152344 559.757812 721.644531 559.765625 C 722.144531 559.765625 722.613281 559.984375 723.050781 560.421875 C 723.476562 560.851562 723.691406 561.320312 723.691406 561.828125 C 723.699219 562.328125 723.492188 562.792969 723.066406 563.21875 C 722.597656 563.6875 722.050781 563.871094 721.425781 563.765625 C 720.8125 563.652344 720.15625 563.246094 719.457031 562.546875 C 718.8125 561.902344 718.453125 561.230469 718.378906 560.53125 C 718.296875 559.824219 718.515625 559.210938 719.035156 558.6875 C 719.171875 558.554688 719.324219 558.429688 719.488281 558.3125 C 719.65625 558.199219 719.847656 558.09375 720.066406 558 Z M 724.726562 561.402344 "/>
<path style=" stroke:none;fill-rule:nonzero;fill:rgb(0%,0%,0%);fill-opacity:0.87;" d="M 827.765625 560.273438 L 830.40625 557.632812 L 830.640625 557.867188 L 833.046875 563.242188 L 832.453125 563.835938 L 830.203125 558.773438 L 828.234375 560.742188 Z M 835.019531 561.269531 "/>
<path style=" stroke:none;fill-rule:nonzero;fill:rgb(0%,0%,0%);fill-opacity:0.87;" d="M 941.328125 561.214844 C 941.070312 561.476562 940.933594 561.753906 940.921875 562.042969 C 940.914062 562.335938 941.03125 562.605469 941.28125 562.855469 C 941.53125 563.105469 941.800781 563.226562 942.09375 563.214844 C 942.382812 563.207031 942.660156 563.070312 942.921875 562.808594 C 943.191406 562.539062 943.328125 562.257812 943.328125 561.964844 C 943.335938 561.664062 943.222656 561.394531 942.984375 561.152344 C 942.734375 560.902344 942.460938 560.785156 942.171875 560.792969 C 941.878906 560.804688 941.597656 560.945312 941.328125 561.214844 Z M 940.515625 561.527344 C 940.234375 561.707031 939.949219 561.785156 939.65625 561.761719 C 939.355469 561.730469 939.085938 561.597656 938.84375 561.355469 C 938.511719 561.023438 938.367188 560.644531 938.40625 560.214844 C 938.449219 559.789062 938.671875 559.371094 939.078125 558.964844 C 939.496094 558.550781 939.917969 558.324219 940.34375 558.292969 C 940.761719 558.253906 941.136719 558.398438 941.46875 558.730469 C 941.707031 558.972656 941.84375 559.238281 941.875 559.527344 C 941.90625 559.820312 941.828125 560.113281 941.640625 560.402344 C 941.984375 560.207031 942.316406 560.121094 942.640625 560.152344 C 942.972656 560.175781 943.273438 560.320312 943.546875 560.589844 C 943.941406 560.988281 944.125 561.414062 944.09375 561.871094 C 944.0625 562.332031 943.816406 562.789062 943.359375 563.246094 C 942.898438 563.707031 942.441406 563.949219 941.984375 563.980469 C 941.535156 564.003906 941.117188 563.816406 940.71875 563.417969 C 940.449219 563.148438 940.304688 562.851562 940.28125 562.527344 C 940.25 562.195312 940.328125 561.863281 940.515625 561.527344 Z M 939.4375 560.855469 C 939.648438 561.066406 939.882812 561.164062 940.140625 561.152344 C 940.402344 561.144531 940.652344 561.019531 940.890625 560.777344 C 941.132812 560.539062 941.257812 560.289062 941.265625 560.027344 C 941.277344 559.769531 941.179688 559.535156 940.96875 559.324219 C 940.75 559.105469 940.515625 559.007812 940.265625 559.027344 C 940.015625 559.050781 939.773438 559.179688 939.53125 559.417969 C 939.292969 559.660156 939.164062 559.902344 939.140625 560.152344 C 939.121094 560.402344 939.21875 560.636719 939.4375 560.855469 Z M 945.082031 561.367188 "/>
<path style=" stroke:none;fill-rule:nonzero;fill:rgb(0%,0%,0%);fill-opacity:0.87;" d="M 1052.1875 564.234375 L 1051.6875 563.734375 C 1051.882812 563.664062 1052.070312 563.574219 1052.25 563.46875 C 1052.4375 563.355469 1052.597656 563.230469 1052.734375 563.09375 C 1053.097656 562.730469 1053.253906 562.324219 1053.203125 561.875 C 1053.148438 561.429688 1052.890625 560.9375 1052.421875 560.40625 C 1052.460938 560.679688 1052.441406 560.9375 1052.359375 561.1875 C 1052.285156 561.429688 1052.148438 561.648438 1051.953125 561.84375 C 1051.539062 562.261719 1051.089844 562.46875 1050.609375 562.46875 C 1050.121094 562.460938 1049.65625 562.234375 1049.21875 561.796875 C 1048.792969 561.371094 1048.578125 560.90625 1048.578125 560.40625 C 1048.570312 559.898438 1048.773438 559.433594 1049.1875 559.015625 C 1049.667969 558.539062 1050.214844 558.355469 1050.828125 558.46875 C 1051.445312 558.585938 1052.097656 558.992188 1052.796875 559.6875 C 1053.453125 560.34375 1053.816406 561.023438 1053.890625 561.71875 C 1053.972656 562.40625 1053.75 563.015625 1053.21875 563.546875 C 1053.082031 563.683594 1052.925781 563.8125 1052.75 563.9375 C 1052.582031 564.054688 1052.394531 564.152344 1052.1875 564.234375 Z M 1051.5625 561.390625 C 1051.8125 561.140625 1051.921875 560.855469 1051.890625 560.53125 C 1051.859375 560.210938 1051.695312 559.902344 1051.40625 559.609375 C 1051.117188 559.320312 1050.8125 559.164062 1050.5 559.140625 C 1050.179688 559.109375 1049.890625 559.21875 1049.640625 559.46875 C 1049.390625 559.71875 1049.28125 560.007812 1049.3125 560.328125 C 1049.335938 560.640625 1049.492188 560.945312 1049.78125 561.234375 C 1050.074219 561.527344 1050.382812 561.6875 1050.703125 561.71875 C 1051.027344 561.75 1051.3125 561.640625 1051.5625 561.390625 Z M 1055.253906 561.355469 "/>
<path style=" stroke:none;fill-rule:nonzero;fill:rgb(0%,0%,0%);fill-opacity:0.87;" d="M 1158.429688 567.402344 L 1159.335938 566.496094 L 1156.195312 563.355469 L 1155.414062 564.542969 L 1154.898438 564.027344 L 1155.679688 562.839844 L 1156.242188 562.277344 L 1159.898438 565.933594 L 1160.804688 565.027344 L 1161.273438 565.496094 L 1158.898438 567.871094 Z M 1159.84375 559.429688 C 1159.5625 559.710938 1159.492188 560.066406 1159.625 560.492188 C 1159.761719 560.921875 1160.109375 561.414062 1160.671875 561.976562 C 1161.234375 562.539062 1161.730469 562.894531 1162.15625 563.039062 C 1162.59375 563.175781 1162.953125 563.101562 1163.234375 562.820312 C 1163.523438 562.53125 1163.597656 562.171875 1163.453125 561.742188 C 1163.304688 561.316406 1162.953125 560.820312 1162.390625 560.257812 C 1161.828125 559.695312 1161.339844 559.347656 1160.921875 559.210938 C 1160.496094 559.066406 1160.136719 559.140625 1159.84375 559.429688 Z M 1159.390625 558.976562 C 1159.859375 558.507812 1160.398438 558.335938 1161 558.460938 C 1161.605469 558.585938 1162.253906 559 1162.953125 559.695312 C 1163.648438 560.394531 1164.0625 561.046875 1164.1875 561.648438 C 1164.3125 562.253906 1164.140625 562.789062 1163.671875 563.257812 C 1163.210938 563.71875 1162.675781 563.890625 1162.0625 563.773438 C 1161.460938 563.648438 1160.808594 563.238281 1160.109375 562.539062 C 1159.414062 561.84375 1159.007812 561.191406 1158.890625 560.585938 C 1158.765625 559.972656 1158.933594 559.4375 1159.390625 558.976562 Z M 1165.394531 561.378906 "/>
<path style="fill:none;stroke-width:6;stroke-linecap:round;stroke-linejoin:round;stroke:rgb(95.686275%,26.27451%,21.176471%);stroke-opacity:0.8;stroke-dasharray:3,8;stroke-miterlimit:4;" d="M 26.4375 700.270833 L 1348.359375 700.270833 " transform="matrix(0.75,0,0,0.75,153.75,15)"/>
<path style="fill:none;stroke-width:6;stroke-linecap:round;stroke-linejoin:round;stroke:rgb(24.705882%,31.764706%,70.980392%);stroke-opacity:0.8;stroke-dasharray:3,8;stroke-miterlimit:4;" d="M 26.4375 686.666667 L 173.317708 686.697917 L 320.197917 686.697917 L 467.078125 683.65625 L 613.958333 685.161458 L 760.838542 683.59375 L 907.71875 685.161458 L 1054.598958 682.182292 L 1201.479167 677.604167 L 1348.359375 680.614583 " transform="matrix(0.75,0,0,0.75,153.75,15)"/>
<path style="fill:none;stroke-width:2;stroke-linecap:butt;stroke-linejoin:miter;stroke:rgb(0%,58.823529%,53.333333%);stroke-opacity:0.8;stroke-miterlimit:4;" d="M 26.4375 13.729167 L 1348.359375 13.729167 " transform="matrix(0.75,0,0,0.75,153.75,15)"/>
<path style=" stroke:none;fill-rule:nonzero;fill:rgb(0%,0%,0%);fill-opacity:1;" d="M 615.226562 576.25 L 616.820312 576.25 L 620.710938 583.5625 L 620.710938 576.25 L 621.851562 576.25 L 621.851562 585 L 620.257812 585 L 616.382812 577.6875 L 616.382812 585 L 615.226562 585 Z M 624.046875 582.40625 L 624.046875 578.4375 L 625.125 578.4375 L 625.125 582.375 C 625.125 582.992188 625.242188 583.453125 625.484375 583.765625 C 625.734375 584.078125 626.097656 584.234375 626.578125 584.234375 C 627.160156 584.234375 627.617188 584.054688 627.953125 583.6875 C 628.296875 583.3125 628.46875 582.804688 628.46875 582.15625 L 628.46875 578.4375 L 629.546875 578.4375 L 629.546875 585 L 628.46875 585 L 628.46875 583.984375 C 628.207031 584.390625 627.90625 584.695312 627.5625 584.890625 C 627.21875 585.078125 626.816406 585.171875 626.359375 585.171875 C 625.597656 585.171875 625.019531 584.9375 624.625 584.46875 C 624.238281 584 624.046875 583.3125 624.046875 582.40625 Z M 626.765625 578.28125 Z M 636.871094 579.703125 C 637.140625 579.214844 637.464844 578.855469 637.839844 578.625 C 638.214844 578.398438 638.65625 578.28125 639.167969 578.28125 C 639.855469 578.28125 640.378906 578.523438 640.746094 579 C 641.121094 579.480469 641.308594 580.15625 641.308594 581.03125 L 641.308594 585 L 640.230469 585 L 640.230469 581.078125 C 640.230469 580.445312 640.113281 579.976562 639.886719 579.671875 C 639.667969 579.371094 639.328125 579.21875 638.871094 579.21875 C 638.308594 579.21875 637.863281 579.40625 637.542969 579.78125 C 637.21875 580.148438 637.058594 580.652344 637.058594 581.296875 L 637.058594 585 L 635.980469 585 L 635.980469 581.078125 C 635.980469 580.445312 635.863281 579.976562 635.636719 579.671875 C 635.417969 579.371094 635.074219 579.21875 634.605469 579.21875 C 634.050781 579.21875 633.613281 579.40625 633.292969 579.78125 C 632.96875 580.148438 632.808594 580.652344 632.808594 581.296875 L 632.808594 585 L 631.730469 585 L 631.730469 578.4375 L 632.808594 578.4375 L 632.808594 579.453125 C 633.058594 579.058594 633.355469 578.765625 633.699219 578.578125 C 634.042969 578.382812 634.449219 578.28125 634.917969 578.28125 C 635.394531 578.28125 635.800781 578.402344 636.136719 578.640625 C 636.46875 578.882812 636.714844 579.234375 636.871094 579.703125 Z M 648.171875 581.71875 C 648.171875 580.929688 648.003906 580.308594 647.671875 579.859375 C 647.347656 579.414062 646.90625 579.1875 646.34375 579.1875 C 645.769531 579.1875 645.316406 579.414062 644.984375 579.859375 C 644.660156 580.308594 644.5 580.929688 644.5 581.71875 C 644.5 582.511719 644.660156 583.136719 644.984375 583.59375 C 645.316406 584.042969 645.769531 584.265625 646.34375 584.265625 C 646.90625 584.265625 647.347656 584.042969 647.671875 583.59375 C 648.003906 583.136719 648.171875 582.511719 648.171875 581.71875 Z M 644.5 579.4375 C 644.726562 579.042969 645.015625 578.75 645.359375 578.5625 C 645.703125 578.375 646.113281 578.28125 646.59375 578.28125 C 647.394531 578.28125 648.046875 578.601562 648.546875 579.234375 C 649.046875 579.859375 649.296875 580.6875 649.296875 581.71875 C 649.296875 582.75 649.046875 583.585938 648.546875 584.21875 C 648.046875 584.855469 647.394531 585.171875 646.59375 585.171875 C 646.113281 585.171875 645.703125 585.078125 645.359375 584.890625 C 645.015625 584.695312 644.726562 584.402344 644.5 584.015625 L 644.5 585 L 643.421875 585 L 643.421875 575.875 L 644.5 575.875 Z M 656.695312 581.453125 L 656.695312 581.96875 L 651.726562 581.96875 C 651.777344 582.71875 652 583.289062 652.398438 583.671875 C 652.804688 584.058594 653.359375 584.25 654.070312 584.25 C 654.484375 584.25 654.886719 584.203125 655.273438 584.109375 C 655.667969 584.007812 656.058594 583.851562 656.445312 583.640625 L 656.445312 584.671875 C 656.046875 584.828125 655.648438 584.949219 655.242188 585.03125 C 654.835938 585.125 654.421875 585.171875 654.007812 585.171875 C 652.964844 585.171875 652.136719 584.871094 651.523438 584.265625 C 650.90625 583.652344 650.601562 582.824219 650.601562 581.78125 C 650.601562 580.710938 650.890625 579.859375 651.476562 579.234375 C 652.058594 578.601562 652.839844 578.28125 653.820312 578.28125 C 654.703125 578.28125 655.402344 578.570312 655.914062 579.140625 C 656.433594 579.703125 656.695312 580.476562 656.695312 581.453125 Z M 655.617188 581.125 C 655.605469 580.542969 655.4375 580.074219 655.117188 579.71875 C 654.792969 579.367188 654.367188 579.1875 653.835938 579.1875 C 653.230469 579.1875 652.746094 579.359375 652.382812 579.703125 C 652.027344 580.046875 651.824219 580.527344 651.773438 581.140625 Z M 662.265625 579.4375 C 662.140625 579.375 662.003906 579.328125 661.859375 579.296875 C 661.722656 579.257812 661.566406 579.234375 661.390625 579.234375 C 660.785156 579.234375 660.316406 579.433594 659.984375 579.828125 C 659.660156 580.226562 659.5 580.796875 659.5 581.546875 L 659.5 585 L 658.421875 585 L 658.421875 578.4375 L 659.5 578.4375 L 659.5 579.453125 C 659.726562 579.058594 660.023438 578.765625 660.390625 578.578125 C 660.753906 578.382812 661.195312 578.28125 661.71875 578.28125 C 661.789062 578.28125 661.867188 578.289062 661.953125 578.296875 C 662.046875 578.308594 662.144531 578.324219 662.25 578.34375 Z M 669.746094 579.1875 C 669.171875 579.1875 668.714844 579.417969 668.371094 579.875 C 668.035156 580.324219 667.871094 580.9375 667.871094 581.71875 C 667.871094 582.511719 668.035156 583.132812 668.371094 583.578125 C 668.703125 584.027344 669.160156 584.25 669.746094 584.25 C 670.316406 584.25 670.769531 584.027344 671.105469 583.578125 C 671.449219 583.121094 671.621094 582.5 671.621094 581.71875 C 671.621094 580.949219 671.449219 580.335938 671.105469 579.875 C 670.769531 579.417969 670.316406 579.1875 669.746094 579.1875 Z M 669.746094 578.28125 C 670.683594 578.28125 671.417969 578.589844 671.949219 579.203125 C 672.488281 579.808594 672.761719 580.648438 672.761719 581.71875 C 672.761719 582.792969 672.488281 583.636719 671.949219 584.25 C 671.417969 584.867188 670.683594 585.171875 669.746094 585.171875 C 668.808594 585.171875 668.066406 584.867188 667.527344 584.25 C 666.996094 583.636719 666.730469 582.792969 666.730469 581.71875 C 666.730469 580.648438 666.996094 579.808594 667.527344 579.203125 C 668.066406 578.589844 668.808594 578.28125 669.746094 578.28125 Z M 677.871094 575.875 L 677.871094 576.78125 L 676.839844 576.78125 C 676.453125 576.78125 676.183594 576.859375 676.027344 577.015625 C 675.878906 577.171875 675.808594 577.453125 675.808594 577.859375 L 675.808594 578.4375 L 677.589844 578.4375 L 677.589844 579.28125 L 675.808594 579.28125 L 675.808594 585 L 674.730469 585 L 674.730469 579.28125 L 673.699219 579.28125 L 673.699219 578.4375 L 674.730469 578.4375 L 674.730469 577.984375 C 674.730469 577.257812 674.894531 576.726562 675.230469 576.390625 C 675.574219 576.046875 676.113281 575.875 676.855469 575.875 Z M 688.207031 581.453125 L 688.207031 581.96875 L 683.238281 581.96875 C 683.289062 582.71875 683.511719 583.289062 683.910156 583.671875 C 684.316406 584.058594 684.871094 584.25 685.582031 584.25 C 685.996094 584.25 686.398438 584.203125 686.785156 584.109375 C 687.179688 584.007812 687.570312 583.851562 687.957031 583.640625 L 687.957031 584.671875 C 687.558594 584.828125 687.160156 584.949219 686.753906 585.03125 C 686.347656 585.125 685.933594 585.171875 685.519531 585.171875 C 684.476562 585.171875 683.648438 584.871094 683.035156 584.265625 C 682.417969 583.652344 682.113281 582.824219 682.113281 581.78125 C 682.113281 580.710938 682.402344 579.859375 682.988281 579.234375 C 683.570312 578.601562 684.351562 578.28125 685.332031 578.28125 C 686.214844 578.28125 686.914062 578.570312 687.425781 579.140625 C 687.945312 579.703125 688.207031 580.476562 688.207031 581.453125 Z M 687.128906 581.125 C 687.117188 580.542969 686.949219 580.074219 686.628906 579.71875 C 686.304688 579.367188 685.878906 579.1875 685.347656 579.1875 C 684.742188 579.1875 684.257812 579.359375 683.894531 579.703125 C 683.539062 580.046875 683.335938 580.527344 683.285156 581.140625 Z M 691.011719 584.015625 L 691.011719 587.5 L 689.933594 587.5 L 689.933594 578.4375 L 691.011719 578.4375 L 691.011719 579.4375 C 691.238281 579.042969 691.527344 578.75 691.871094 578.5625 C 692.214844 578.375 692.625 578.28125 693.105469 578.28125 C 693.90625 578.28125 694.558594 578.601562 695.058594 579.234375 C 695.558594 579.859375 695.808594 580.6875 695.808594 581.71875 C 695.808594 582.75 695.558594 583.585938 695.058594 584.21875 C 694.558594 584.855469 693.90625 585.171875 693.105469 585.171875 C 692.625 585.171875 692.214844 585.078125 691.871094 584.890625 C 691.527344 584.695312 691.238281 584.402344 691.011719 584.015625 Z M 694.683594 581.71875 C 694.683594 580.929688 694.515625 580.308594 694.183594 579.859375 C 693.859375 579.414062 693.417969 579.1875 692.855469 579.1875 C 692.28125 579.1875 691.828125 579.414062 691.496094 579.859375 C 691.171875 580.308594 691.011719 580.929688 691.011719 581.71875 C 691.011719 582.511719 691.171875 583.136719 691.496094 583.59375 C 691.828125 584.042969 692.28125 584.265625 692.855469 584.265625 C 693.417969 584.265625 693.859375 584.042969 694.183594 583.59375 C 694.515625 583.136719 694.683594 582.511719 694.683594 581.71875 Z M 700.128906 579.1875 C 699.554688 579.1875 699.097656 579.417969 698.753906 579.875 C 698.417969 580.324219 698.253906 580.9375 698.253906 581.71875 C 698.253906 582.511719 698.417969 583.132812 698.753906 583.578125 C 699.085938 584.027344 699.542969 584.25 700.128906 584.25 C 700.699219 584.25 701.152344 584.027344 701.488281 583.578125 C 701.832031 583.121094 702.003906 582.5 702.003906 581.71875 C 702.003906 580.949219 701.832031 580.335938 701.488281 579.875 C 701.152344 579.417969 700.699219 579.1875 700.128906 579.1875 Z M 700.128906 578.28125 C 701.066406 578.28125 701.800781 578.589844 702.332031 579.203125 C 702.871094 579.808594 703.144531 580.648438 703.144531 581.71875 C 703.144531 582.792969 702.871094 583.636719 702.332031 584.25 C 701.800781 584.867188 701.066406 585.171875 700.128906 585.171875 C 699.191406 585.171875 698.449219 584.867188 697.910156 584.25 C 697.378906 583.636719 697.113281 582.792969 697.113281 581.71875 C 697.113281 580.648438 697.378906 579.808594 697.910156 579.203125 C 698.449219 578.589844 699.191406 578.28125 700.128906 578.28125 Z M 709.65625 578.6875 L 709.65625 579.703125 C 709.34375 579.527344 709.035156 579.398438 708.734375 579.3125 C 708.429688 579.230469 708.125 579.1875 707.8125 579.1875 C 707.101562 579.1875 706.554688 579.414062 706.171875 579.859375 C 705.785156 580.296875 705.59375 580.917969 705.59375 581.71875 C 705.59375 582.523438 705.785156 583.148438 706.171875 583.59375 C 706.554688 584.03125 707.101562 584.25 707.8125 584.25 C 708.125 584.25 708.429688 584.210938 708.734375 584.125 C 709.035156 584.042969 709.34375 583.917969 709.65625 583.75 L 709.65625 584.75 C 709.351562 584.886719 709.039062 584.992188 708.71875 585.0625 C 708.394531 585.132812 708.050781 585.171875 707.6875 585.171875 C 706.695312 585.171875 705.910156 584.867188 705.328125 584.25 C 704.742188 583.625 704.453125 582.78125 704.453125 581.71875 C 704.453125 580.65625 704.742188 579.820312 705.328125 579.203125 C 705.921875 578.589844 706.734375 578.28125 707.765625 578.28125 C 708.085938 578.28125 708.40625 578.320312 708.71875 578.390625 C 709.039062 578.453125 709.351562 578.554688 709.65625 578.6875 Z M 716.988281 581.03125 L 716.988281 585 L 715.910156 585 L 715.910156 581.078125 C 715.910156 580.453125 715.785156 579.992188 715.535156 579.6875 C 715.292969 579.375 714.933594 579.21875 714.457031 579.21875 C 713.871094 579.21875 713.410156 579.40625 713.066406 579.78125 C 712.730469 580.148438 712.566406 580.652344 712.566406 581.296875 L 712.566406 585 L 711.488281 585 L 711.488281 575.875 L 712.566406 575.875 L 712.566406 579.453125 C 712.824219 579.058594 713.128906 578.765625 713.472656 578.578125 C 713.824219 578.382812 714.230469 578.28125 714.691406 578.28125 C 715.441406 578.28125 716.007812 578.515625 716.394531 578.984375 C 716.789062 579.445312 716.988281 580.125 716.988281 581.03125 Z M 723.3125 578.625 L 723.3125 579.65625 C 723.007812 579.5 722.691406 579.386719 722.359375 579.3125 C 722.035156 579.230469 721.695312 579.1875 721.34375 579.1875 C 720.8125 579.1875 720.410156 579.273438 720.140625 579.4375 C 719.867188 579.59375 719.734375 579.839844 719.734375 580.171875 C 719.734375 580.421875 719.828125 580.621094 720.015625 580.765625 C 720.210938 580.902344 720.601562 581.03125 721.1875 581.15625 L 721.546875 581.25 C 722.316406 581.40625 722.863281 581.636719 723.1875 581.9375 C 723.507812 582.242188 723.671875 582.65625 723.671875 583.1875 C 723.671875 583.804688 723.425781 584.289062 722.9375 584.640625 C 722.457031 584.996094 721.796875 585.171875 720.953125 585.171875 C 720.597656 585.171875 720.226562 585.132812 719.84375 585.0625 C 719.46875 585 719.070312 584.902344 718.65625 584.765625 L 718.65625 583.640625 C 719.050781 583.851562 719.441406 584.007812 719.828125 584.109375 C 720.210938 584.214844 720.597656 584.265625 720.984375 584.265625 C 721.484375 584.265625 721.867188 584.183594 722.140625 584.015625 C 722.421875 583.839844 722.5625 583.589844 722.5625 583.265625 C 722.5625 582.976562 722.460938 582.75 722.265625 582.59375 C 722.066406 582.4375 721.632812 582.289062 720.96875 582.140625 L 720.59375 582.0625 C 719.925781 581.917969 719.441406 581.699219 719.140625 581.40625 C 718.847656 581.117188 718.703125 580.71875 718.703125 580.21875 C 718.703125 579.59375 718.921875 579.117188 719.359375 578.78125 C 719.796875 578.449219 720.414062 578.28125 721.21875 578.28125 C 721.613281 578.28125 721.988281 578.3125 722.34375 578.375 C 722.695312 578.429688 723.019531 578.511719 723.3125 578.625 Z M 724.25 585 "/>
<path style=" stroke:none;fill-rule:nonzero;fill:rgb(0%,0%,0%);fill-opacity:1;" d="M 109.429688 343.960938 L 110.585938 343.960938 C 110.378906 344.410156 110.222656 344.835938 110.117188 345.242188 C 110.003906 345.640625 109.945312 346.019531 109.945312 346.382812 C 109.945312 347.03125 110.070312 347.53125 110.320312 347.882812 C 110.570312 348.226562 110.929688 348.398438 111.398438 348.398438 C 111.785156 348.398438 112.078125 348.285156 112.273438 348.054688 C 112.472656 347.828125 112.628906 347.382812 112.742188 346.726562 L 112.898438 346.023438 C 113.066406 345.140625 113.363281 344.488281 113.789062 344.070312 C 114.207031 343.644531 114.769531 343.429688 115.476562 343.429688 C 116.332031 343.429688 116.976562 343.71875 117.414062 344.289062 C 117.851562 344.851562 118.070312 345.6875 118.070312 346.789062 C 118.070312 347.195312 118.023438 347.632812 117.929688 348.101562 C 117.835938 348.570312 117.695312 349.054688 117.507812 349.554688 L 116.289062 349.554688 C 116.5625 349.078125 116.765625 348.609375 116.898438 348.148438 C 117.035156 347.679688 117.101562 347.226562 117.101562 346.789062 C 117.101562 346.113281 116.972656 345.59375 116.710938 345.226562 C 116.441406 344.851562 116.0625 344.664062 115.570312 344.664062 C 115.144531 344.664062 114.8125 344.800781 114.570312 345.070312 C 114.320312 345.332031 114.140625 345.765625 114.023438 346.367188 L 113.882812 347.085938 C 113.707031 347.972656 113.429688 348.613281 113.054688 349.007812 C 112.679688 349.394531 112.160156 349.585938 111.492188 349.585938 C 110.710938 349.585938 110.101562 349.316406 109.664062 348.773438 C 109.21875 348.234375 108.992188 347.484375 108.992188 346.523438 C 108.992188 346.109375 109.03125 345.691406 109.101562 345.273438 C 109.175781 344.847656 109.285156 344.410156 109.429688 343.960938 Z M 114.351562 336.015625 L 114.867188 336.015625 L 114.867188 340.984375 C 115.617188 340.933594 116.1875 340.710938 116.570312 340.3125 C 116.957031 339.90625 117.148438 339.351562 117.148438 338.640625 C 117.148438 338.226562 117.101562 337.824219 117.007812 337.4375 C 116.90625 337.042969 116.75 336.652344 116.539062 336.265625 L 117.570312 336.265625 C 117.726562 336.664062 117.847656 337.0625 117.929688 337.46875 C 118.023438 337.875 118.070312 338.289062 118.070312 338.703125 C 118.070312 339.746094 117.769531 340.574219 117.164062 341.1875 C 116.550781 341.804688 115.722656 342.109375 114.679688 342.109375 C 113.609375 342.109375 112.757812 341.820312 112.132812 341.234375 C 111.5 340.652344 111.179688 339.871094 111.179688 338.890625 C 111.179688 338.007812 111.46875 337.308594 112.039062 336.796875 C 112.601562 336.277344 113.375 336.015625 114.351562 336.015625 Z M 114.023438 337.09375 C 113.441406 337.105469 112.972656 337.273438 112.617188 337.59375 C 112.265625 337.917969 112.085938 338.34375 112.085938 338.875 C 112.085938 339.480469 112.257812 339.964844 112.601562 340.328125 C 112.945312 340.683594 113.425781 340.886719 114.039062 340.9375 Z M 112.601562 329.148438 C 112.113281 328.878906 111.753906 328.554688 111.523438 328.179688 C 111.296875 327.804688 111.179688 327.363281 111.179688 326.851562 C 111.179688 326.164062 111.421875 325.640625 111.898438 325.273438 C 112.378906 324.898438 113.054688 324.710938 113.929688 324.710938 L 117.898438 324.710938 L 117.898438 325.789062 L 113.976562 325.789062 C 113.34375 325.789062 112.875 325.90625 112.570312 326.132812 C 112.269531 326.351562 112.117188 326.691406 112.117188 327.148438 C 112.117188 327.710938 112.304688 328.15625 112.679688 328.476562 C 113.046875 328.800781 113.550781 328.960938 114.195312 328.960938 L 117.898438 328.960938 L 117.898438 330.039062 L 113.976562 330.039062 C 113.34375 330.039062 112.875 330.15625 112.570312 330.382812 C 112.269531 330.601562 112.117188 330.945312 112.117188 331.414062 C 112.117188 331.96875 112.304688 332.40625 112.679688 332.726562 C 113.046875 333.050781 113.550781 333.210938 114.195312 333.210938 L 117.898438 333.210938 L 117.898438 334.289062 L 111.335938 334.289062 L 111.335938 333.210938 L 112.351562 333.210938 C 111.957031 332.960938 111.664062 332.664062 111.476562 332.320312 C 111.28125 331.976562 111.179688 331.570312 111.179688 331.101562 C 111.179688 330.625 111.300781 330.21875 111.539062 329.882812 C 111.78125 329.550781 112.132812 329.304688 112.601562 329.148438 Z M 114.132812 323.101562 L 114.132812 319.945312 L 115.085938 319.945312 L 115.085938 323.101562 Z M 109.476562 317.160156 L 111.335938 317.160156 L 111.335938 314.941406 L 112.179688 314.941406 L 112.179688 317.160156 L 115.742188 317.160156 C 116.273438 317.160156 116.617188 317.089844 116.773438 316.941406 C 116.921875 316.796875 116.992188 316.5 116.992188 316.050781 L 116.992188 314.941406 L 117.898438 314.941406 L 117.898438 316.050781 C 117.898438 316.886719 117.742188 317.464844 117.429688 317.785156 C 117.117188 318.097656 116.554688 318.253906 115.742188 318.253906 L 112.179688 318.253906 L 112.179688 319.035156 L 111.335938 319.035156 L 111.335938 318.253906 L 109.476562 318.253906 Z M 114.601562 310.550781 C 114.601562 311.417969 114.703125 312.019531 114.898438 312.363281 C 115.097656 312.699219 115.4375 312.863281 115.914062 312.863281 C 116.300781 312.863281 116.609375 312.738281 116.835938 312.488281 C 117.054688 312.230469 117.164062 311.886719 117.164062 311.457031 C 117.164062 310.855469 116.957031 310.375 116.539062 310.019531 C 116.113281 309.65625 115.546875 309.472656 114.835938 309.472656 L 114.601562 309.472656 Z M 114.148438 308.394531 L 117.898438 308.394531 L 117.898438 309.472656 L 116.898438 309.472656 C 117.296875 309.722656 117.59375 310.03125 117.789062 310.394531 C 117.976562 310.761719 118.070312 311.207031 118.070312 311.738281 C 118.070312 312.417969 117.882812 312.953125 117.507812 313.347656 C 117.125 313.746094 116.617188 313.941406 115.992188 313.941406 C 115.253906 313.941406 114.695312 313.699219 114.320312 313.207031 C 113.945312 312.707031 113.757812 311.96875 113.757812 310.988281 L 113.757812 309.472656 L 113.648438 309.472656 C 113.148438 309.472656 112.765625 309.640625 112.492188 309.972656 C 112.222656 310.296875 112.085938 310.75 112.085938 311.332031 C 112.085938 311.707031 112.132812 312.078125 112.226562 312.441406 C 112.320312 312.796875 112.457031 313.136719 112.632812 313.457031 L 111.632812 313.457031 C 111.476562 313.0625 111.363281 312.683594 111.289062 312.316406 C 111.21875 311.941406 111.179688 311.578125 111.179688 311.222656 C 111.179688 310.277344 111.425781 309.566406 111.914062 309.097656 C 112.40625 308.628906 113.148438 308.394531 114.148438 308.394531 Z M 114.539062 301.851562 C 113.757812 301.851562 113.15625 302.015625 112.726562 302.335938 C 112.300781 302.660156 112.085938 303.113281 112.085938 303.695312 C 112.085938 304.269531 112.300781 304.71875 112.726562 305.039062 C 113.15625 305.363281 113.757812 305.523438 114.539062 305.523438 C 115.320312 305.523438 115.925781 305.363281 116.351562 305.039062 C 116.78125 304.71875 116.992188 304.269531 116.992188 303.695312 C 116.992188 303.113281 116.78125 302.660156 116.351562 302.335938 C 115.925781 302.015625 115.320312 301.851562 114.539062 301.851562 Z M 117.085938 300.773438 C 118.199219 300.773438 119.027344 301.023438 119.570312 301.523438 C 120.121094 302.015625 120.398438 302.773438 120.398438 303.804688 C 120.398438 304.179688 120.367188 304.539062 120.304688 304.882812 C 120.25 305.21875 120.167969 305.539062 120.054688 305.851562 L 119.007812 305.851562 C 119.171875 305.539062 119.296875 305.226562 119.382812 304.914062 C 119.464844 304.601562 119.507812 304.289062 119.507812 303.976562 C 119.507812 303.269531 119.320312 302.738281 118.945312 302.382812 C 118.578125 302.03125 118.023438 301.851562 117.273438 301.851562 L 116.742188 301.851562 C 117.128906 302.082031 117.421875 302.367188 117.617188 302.710938 C 117.804688 303.054688 117.898438 303.472656 117.898438 303.960938 C 117.898438 304.765625 117.59375 305.414062 116.976562 305.914062 C 116.363281 306.40625 115.550781 306.648438 114.539062 306.648438 C 113.53125 306.648438 112.71875 306.40625 112.101562 305.914062 C 111.488281 305.414062 111.179688 304.765625 111.179688 303.960938 C 111.179688 303.472656 111.28125 303.054688 111.476562 302.710938 C 111.664062 302.367188 111.953125 302.082031 112.335938 301.851562 L 111.335938 301.851562 L 111.335938 300.773438 Z M 114.539062 294.234375 C 113.757812 294.234375 113.15625 294.398438 112.726562 294.71875 C 112.300781 295.042969 112.085938 295.496094 112.085938 296.078125 C 112.085938 296.652344 112.300781 297.101562 112.726562 297.421875 C 113.15625 297.746094 113.757812 297.90625 114.539062 297.90625 C 115.320312 297.90625 115.925781 297.746094 116.351562 297.421875 C 116.78125 297.101562 116.992188 296.652344 116.992188 296.078125 C 116.992188 295.496094 116.78125 295.042969 116.351562 294.71875 C 115.925781 294.398438 115.320312 294.234375 114.539062 294.234375 Z M 117.085938 293.15625 C 118.199219 293.15625 119.027344 293.40625 119.570312 293.90625 C 120.121094 294.398438 120.398438 295.15625 120.398438 296.1875 C 120.398438 296.5625 120.367188 296.921875 120.304688 297.265625 C 120.25 297.601562 120.167969 297.921875 120.054688 298.234375 L 119.007812 298.234375 C 119.171875 297.921875 119.296875 297.609375 119.382812 297.296875 C 119.464844 296.984375 119.507812 296.671875 119.507812 296.359375 C 119.507812 295.652344 119.320312 295.121094 118.945312 294.765625 C 118.578125 294.414062 118.023438 294.234375 117.273438 294.234375 L 116.742188 294.234375 C 117.128906 294.464844 117.421875 294.75 117.617188 295.09375 C 117.804688 295.4375 117.898438 295.855469 117.898438 296.34375 C 117.898438 297.148438 117.59375 297.796875 116.976562 298.296875 C 116.363281 298.789062 115.550781 299.03125 114.539062 299.03125 C 113.53125 299.03125 112.71875 298.789062 112.101562 298.296875 C 111.488281 297.796875 111.179688 297.148438 111.179688 296.34375 C 111.179688 295.855469 111.28125 295.4375 111.476562 295.09375 C 111.664062 294.75 111.953125 294.464844 112.335938 294.234375 L 111.335938 294.234375 L 111.335938 293.15625 Z M 111.335938 290.945312 L 111.335938 289.867188 L 117.898438 289.867188 L 117.898438 290.945312 Z M 108.773438 290.945312 L 108.773438 289.867188 L 110.148438 289.867188 L 110.148438 290.945312 Z M 113.929688 282.144531 L 117.898438 282.144531 L 117.898438 283.222656 L 113.976562 283.222656 C 113.351562 283.222656 112.890625 283.347656 112.585938 283.597656 C 112.273438 283.839844 112.117188 284.199219 112.117188 284.675781 C 112.117188 285.261719 112.304688 285.722656 112.679688 286.066406 C 113.046875 286.402344 113.550781 286.566406 114.195312 286.566406 L 117.898438 286.566406 L 117.898438 287.644531 L 111.335938 287.644531 L 111.335938 286.566406 L 112.351562 286.566406 C 111.957031 286.308594 111.664062 286.003906 111.476562 285.660156 C 111.28125 285.308594 111.179688 284.902344 111.179688 284.441406 C 111.179688 283.691406 111.414062 283.125 111.882812 282.738281 C 112.34375 282.34375 113.023438 282.144531 113.929688 282.144531 Z M 114.539062 275.679688 C 113.757812 275.679688 113.15625 275.84375 112.726562 276.164062 C 112.300781 276.488281 112.085938 276.941406 112.085938 277.523438 C 112.085938 278.097656 112.300781 278.546875 112.726562 278.867188 C 113.15625 279.191406 113.757812 279.351562 114.539062 279.351562 C 115.320312 279.351562 115.925781 279.191406 116.351562 278.867188 C 116.78125 278.546875 116.992188 278.097656 116.992188 277.523438 C 116.992188 276.941406 116.78125 276.488281 116.351562 276.164062 C 115.925781 275.84375 115.320312 275.679688 114.539062 275.679688 Z M 117.085938 274.601562 C 118.199219 274.601562 119.027344 274.851562 119.570312 275.351562 C 120.121094 275.84375 120.398438 276.601562 120.398438 277.632812 C 120.398438 278.007812 120.367188 278.367188 120.304688 278.710938 C 120.25 279.046875 120.167969 279.367188 120.054688 279.679688 L 119.007812 279.679688 C 119.171875 279.367188 119.296875 279.054688 119.382812 278.742188 C 119.464844 278.429688 119.507812 278.117188 119.507812 277.804688 C 119.507812 277.097656 119.320312 276.566406 118.945312 276.210938 C 118.578125 275.859375 118.023438 275.679688 117.273438 275.679688 L 116.742188 275.679688 C 117.128906 275.910156 117.421875 276.195312 117.617188 276.539062 C 117.804688 276.882812 117.898438 277.300781 117.898438 277.789062 C 117.898438 278.59375 117.59375 279.242188 116.976562 279.742188 C 116.363281 280.234375 115.550781 280.476562 114.539062 280.476562 C 113.53125 280.476562 112.71875 280.234375 112.101562 279.742188 C 111.488281 279.242188 111.179688 278.59375 111.179688 277.789062 C 111.179688 277.300781 111.28125 276.882812 111.476562 276.539062 C 111.664062 276.195312 111.953125 275.910156 112.335938 275.679688 L 111.335938 275.679688 L 111.335938 274.601562 Z M 114.601562 265.589844 C 114.601562 266.457031 114.703125 267.058594 114.898438 267.402344 C 115.097656 267.738281 115.4375 267.902344 115.914062 267.902344 C 116.300781 267.902344 116.609375 267.777344 116.835938 267.527344 C 117.054688 267.269531 117.164062 266.925781 117.164062 266.496094 C 117.164062 265.894531 116.957031 265.414062 116.539062 265.058594 C 116.113281 264.695312 115.546875 264.511719 114.835938 264.511719 L 114.601562 264.511719 Z M 114.148438 263.433594 L 117.898438 263.433594 L 117.898438 264.511719 L 116.898438 264.511719 C 117.296875 264.761719 117.59375 265.070312 117.789062 265.433594 C 117.976562 265.800781 118.070312 266.246094 118.070312 266.777344 C 118.070312 267.457031 117.882812 267.992188 117.507812 268.386719 C 117.125 268.785156 116.617188 268.980469 115.992188 268.980469 C 115.253906 268.980469 114.695312 268.738281 114.320312 268.246094 C 113.945312 267.746094 113.757812 267.007812 113.757812 266.027344 L 113.757812 264.511719 L 113.648438 264.511719 C 113.148438 264.511719 112.765625 264.679688 112.492188 265.011719 C 112.222656 265.335938 112.085938 265.789062 112.085938 266.371094 C 112.085938 266.746094 112.132812 267.117188 112.226562 267.480469 C 112.320312 267.835938 112.457031 268.175781 112.632812 268.496094 L 111.632812 268.496094 C 111.476562 268.101562 111.363281 267.722656 111.289062 267.355469 C 111.21875 266.980469 111.179688 266.617188 111.179688 266.261719 C 111.179688 265.316406 111.425781 264.605469 111.914062 264.136719 C 112.40625 263.667969 113.148438 263.433594 114.148438 263.433594 Z M 111.585938 256.488281 L 112.601562 256.488281 C 112.425781 256.800781 112.296875 257.109375 112.210938 257.410156 C 112.128906 257.714844 112.085938 258.019531 112.085938 258.332031 C 112.085938 259.042969 112.3125 259.589844 112.757812 259.972656 C 113.195312 260.359375 113.816406 260.550781 114.617188 260.550781 C 115.421875 260.550781 116.046875 260.359375 116.492188 259.972656 C 116.929688 259.589844 117.148438 259.042969 117.148438 258.332031 C 117.148438 258.019531 117.109375 257.714844 117.023438 257.410156 C 116.941406 257.109375 116.816406 256.800781 116.648438 256.488281 L 117.648438 256.488281 C 117.785156 256.792969 117.890625 257.105469 117.960938 257.425781 C 118.03125 257.75 118.070312 258.09375 118.070312 258.457031 C 118.070312 259.449219 117.765625 260.234375 117.148438 260.816406 C 116.523438 261.402344 115.679688 261.691406 114.617188 261.691406 C 113.554688 261.691406 112.71875 261.402344 112.101562 260.816406 C 111.488281 260.222656 111.179688 259.410156 111.179688 258.378906 C 111.179688 258.058594 111.21875 257.738281 111.289062 257.425781 C 111.351562 257.105469 111.453125 256.792969 111.585938 256.488281 Z M 111.585938 249.890625 L 112.601562 249.890625 C 112.425781 250.203125 112.296875 250.511719 112.210938 250.8125 C 112.128906 251.117188 112.085938 251.421875 112.085938 251.734375 C 112.085938 252.445312 112.3125 252.992188 112.757812 253.375 C 113.195312 253.761719 113.816406 253.953125 114.617188 253.953125 C 115.421875 253.953125 116.046875 253.761719 116.492188 253.375 C 116.929688 252.992188 117.148438 252.445312 117.148438 251.734375 C 117.148438 251.421875 117.109375 251.117188 117.023438 250.8125 C 116.941406 250.511719 116.816406 250.203125 116.648438 249.890625 L 117.648438 249.890625 C 117.785156 250.195312 117.890625 250.507812 117.960938 250.828125 C 118.03125 251.152344 118.070312 251.496094 118.070312 251.859375 C 118.070312 252.851562 117.765625 253.636719 117.148438 254.21875 C 116.523438 254.804688 115.679688 255.09375 114.617188 255.09375 C 113.554688 255.09375 112.71875 254.804688 112.101562 254.21875 C 111.488281 253.625 111.179688 252.8125 111.179688 251.78125 C 111.179688 251.460938 111.21875 251.140625 111.289062 250.828125 C 111.351562 250.507812 111.453125 250.195312 111.585938 249.890625 Z M 115.304688 248.136719 L 111.335938 248.136719 L 111.335938 247.058594 L 115.273438 247.058594 C 115.890625 247.058594 116.351562 246.941406 116.664062 246.699219 C 116.976562 246.449219 117.132812 246.085938 117.132812 245.605469 C 117.132812 245.023438 116.953125 244.566406 116.585938 244.230469 C 116.210938 243.886719 115.703125 243.714844 115.054688 243.714844 L 111.335938 243.714844 L 111.335938 242.636719 L 117.898438 242.636719 L 117.898438 243.714844 L 116.882812 243.714844 C 117.289062 243.976562 117.59375 244.277344 117.789062 244.621094 C 117.976562 244.964844 118.070312 245.367188 118.070312 245.824219 C 118.070312 246.585938 117.835938 247.164062 117.367188 247.558594 C 116.898438 247.945312 116.210938 248.136719 115.304688 248.136719 Z M 111.179688 245.417969 Z M 112.335938 236.609375 C 112.273438 236.734375 112.226562 236.871094 112.195312 237.015625 C 112.15625 237.152344 112.132812 237.308594 112.132812 237.484375 C 112.132812 238.089844 112.332031 238.558594 112.726562 238.890625 C 113.125 239.214844 113.695312 239.375 114.445312 239.375 L 117.898438 239.375 L 117.898438 240.453125 L 111.335938 240.453125 L 111.335938 239.375 L 112.351562 239.375 C 111.957031 239.148438 111.664062 238.851562 111.476562 238.484375 C 111.28125 238.121094 111.179688 237.679688 111.179688 237.15625 C 111.179688 237.085938 111.1875 237.007812 111.195312 236.921875 C 111.207031 236.828125 111.222656 236.730469 111.242188 236.625 Z M 114.601562 232.503906 C 114.601562 233.371094 114.703125 233.972656 114.898438 234.316406 C 115.097656 234.652344 115.4375 234.816406 115.914062 234.816406 C 116.300781 234.816406 116.609375 234.691406 116.835938 234.441406 C 117.054688 234.183594 117.164062 233.839844 117.164062 233.410156 C 117.164062 232.808594 116.957031 232.328125 116.539062 231.972656 C 116.113281 231.609375 115.546875 231.425781 114.835938 231.425781 L 114.601562 231.425781 Z M 114.148438 230.347656 L 117.898438 230.347656 L 117.898438 231.425781 L 116.898438 231.425781 C 117.296875 231.675781 117.59375 231.984375 117.789062 232.347656 C 117.976562 232.714844 118.070312 233.160156 118.070312 233.691406 C 118.070312 234.371094 117.882812 234.90625 117.507812 235.300781 C 117.125 235.699219 116.617188 235.894531 115.992188 235.894531 C 115.253906 235.894531 114.695312 235.652344 114.320312 235.160156 C 113.945312 234.660156 113.757812 233.921875 113.757812 232.941406 L 113.757812 231.425781 L 113.648438 231.425781 C 113.148438 231.425781 112.765625 231.59375 112.492188 231.925781 C 112.222656 232.25 112.085938 232.703125 112.085938 233.285156 C 112.085938 233.660156 112.132812 234.03125 112.226562 234.394531 C 112.320312 234.75 112.457031 235.089844 112.632812 235.410156 L 111.632812 235.410156 C 111.476562 235.015625 111.363281 234.636719 111.289062 234.269531 C 111.21875 233.894531 111.179688 233.53125 111.179688 233.175781 C 111.179688 232.230469 111.425781 231.519531 111.914062 231.050781 C 112.40625 230.582031 113.148438 230.347656 114.148438 230.347656 Z M 111.585938 223.398438 L 112.601562 223.398438 C 112.425781 223.710938 112.296875 224.019531 112.210938 224.320312 C 112.128906 224.625 112.085938 224.929688 112.085938 225.242188 C 112.085938 225.953125 112.3125 226.5 112.757812 226.882812 C 113.195312 227.269531 113.816406 227.460938 114.617188 227.460938 C 115.421875 227.460938 116.046875 227.269531 116.492188 226.882812 C 116.929688 226.5 117.148438 225.953125 117.148438 225.242188 C 117.148438 224.929688 117.109375 224.625 117.023438 224.320312 C 116.941406 224.019531 116.816406 223.710938 116.648438 223.398438 L 117.648438 223.398438 C 117.785156 223.703125 117.890625 224.015625 117.960938 224.335938 C 118.03125 224.660156 118.070312 225.003906 118.070312 225.367188 C 118.070312 226.359375 117.765625 227.144531 117.148438 227.726562 C 116.523438 228.3125 115.679688 228.601562 114.617188 228.601562 C 113.554688 228.601562 112.71875 228.3125 112.101562 227.726562 C 111.488281 227.132812 111.179688 226.320312 111.179688 225.289062 C 111.179688 224.96875 111.21875 224.648438 111.289062 224.335938 C 111.351562 224.015625 111.453125 223.703125 111.585938 223.398438 Z M 118.507812 218.800781 C 119.289062 219.105469 119.796875 219.402344 120.039062 219.691406 C 120.277344 219.984375 120.398438 220.371094 120.398438 220.847656 L 120.398438 221.707031 L 119.492188 221.707031 L 119.492188 221.082031 C 119.492188 220.78125 119.417969 220.550781 119.273438 220.394531 C 119.136719 220.230469 118.808594 220.046875 118.289062 219.847656 L 117.789062 219.644531 L 111.335938 222.300781 L 111.335938 221.160156 L 116.460938 219.113281 L 111.335938 217.050781 L 111.335938 215.910156 Z M 117.898438 215.558594 "/>
<path style="fill-rule:nonzero;fill:rgb(95.686275%,26.27451%,21.176471%);fill-opacity:0.7;stroke-width:1;stroke-linecap:butt;stroke-linejoin:miter;stroke:rgb(95.686275%,26.27451%,21.176471%);stroke-opacity:0.8;stroke-miterlimit:4;" d="M 0 1 L 12 1 L 12 13 L 0 13 Z M 0 1 " transform="matrix(0.75,0,0,0.75,7.5,22.5)"/>
<path style=" stroke:none;fill-rule:nonzero;fill:rgb(0%,0%,0%);fill-opacity:0.87;" d="M 20.21875 22.882812 L 27 22.882812 L 27 23.789062 L 24.15625 23.789062 L 24.15625 30.898438 L 23.0625 30.898438 L 23.0625 23.789062 L 20.21875 23.789062 Z M 31.484375 25.804688 C 31.378906 25.742188 31.257812 25.695312 31.125 25.664062 C 31 25.632812 30.859375 25.617188 30.703125 25.617188 C 30.140625 25.617188 29.707031 25.800781 29.40625 26.164062 C 29.113281 26.53125 28.96875 27.050781 28.96875 27.726562 L 28.96875 30.898438 L 27.96875 30.898438 L 27.96875 24.882812 L 28.96875 24.882812 L 28.96875 25.820312 C 29.164062 25.457031 29.429688 25.1875 29.765625 25.007812 C 30.097656 24.832031 30.503906 24.742188 30.984375 24.742188 C 31.054688 24.742188 31.128906 24.75 31.203125 24.757812 C 31.285156 24.757812 31.378906 24.769531 31.484375 24.789062 Z M 35.257812 27.867188 C 34.464844 27.867188 33.914062 27.960938 33.601562 28.148438 C 33.296875 28.335938 33.148438 28.648438 33.148438 29.085938 C 33.148438 29.429688 33.261719 29.707031 33.492188 29.914062 C 33.71875 30.125 34.03125 30.226562 34.429688 30.226562 C 34.980469 30.226562 35.417969 30.035156 35.742188 29.648438 C 36.074219 29.253906 36.242188 28.738281 36.242188 28.101562 L 36.242188 27.867188 Z M 37.226562 27.460938 L 37.226562 30.898438 L 36.242188 30.898438 L 36.242188 29.992188 C 36.023438 30.359375 35.742188 30.628906 35.398438 30.804688 C 35.0625 30.96875 34.652344 31.054688 34.164062 31.054688 C 33.546875 31.054688 33.058594 30.882812 32.695312 30.539062 C 32.328125 30.195312 32.148438 29.734375 32.148438 29.148438 C 32.148438 28.472656 32.371094 27.960938 32.820312 27.617188 C 33.277344 27.273438 33.960938 27.101562 34.867188 27.101562 L 36.242188 27.101562 L 36.242188 27.007812 C 36.242188 26.550781 36.089844 26.195312 35.789062 25.945312 C 35.496094 25.695312 35.078125 25.570312 34.539062 25.570312 C 34.195312 25.570312 33.855469 25.613281 33.523438 25.695312 C 33.199219 25.78125 32.886719 25.90625 32.585938 26.070312 L 32.585938 25.164062 C 32.949219 25.019531 33.304688 24.914062 33.648438 24.851562 C 33.992188 24.78125 34.320312 24.742188 34.632812 24.742188 C 35.507812 24.742188 36.15625 24.96875 36.585938 25.414062 C 37.011719 25.863281 37.226562 26.546875 37.226562 27.460938 Z M 39.261719 24.882812 L 40.261719 24.882812 L 40.261719 30.898438 L 39.261719 30.898438 Z M 39.261719 22.539062 L 40.261719 22.539062 L 40.261719 23.789062 L 39.261719 23.789062 Z M 47.320312 27.273438 L 47.320312 30.898438 L 46.335938 30.898438 L 46.335938 27.304688 C 46.335938 26.734375 46.226562 26.304688 46.007812 26.023438 C 45.789062 25.742188 45.453125 25.601562 45.007812 25.601562 C 44.476562 25.601562 44.054688 25.773438 43.742188 26.117188 C 43.4375 26.453125 43.289062 26.910156 43.289062 27.492188 L 43.289062 30.898438 L 42.289062 30.898438 L 42.289062 24.882812 L 43.289062 24.882812 L 43.289062 25.820312 C 43.515625 25.457031 43.792969 25.1875 44.117188 25.007812 C 44.4375 24.832031 44.808594 24.742188 45.226562 24.742188 C 45.914062 24.742188 46.433594 24.957031 46.789062 25.382812 C 47.140625 25.8125 47.320312 26.441406 47.320312 27.273438 Z M 49.292969 24.882812 L 50.292969 24.882812 L 50.292969 30.898438 L 49.292969 30.898438 Z M 49.292969 22.539062 L 50.292969 22.539062 L 50.292969 23.789062 L 49.292969 23.789062 Z M 57.347656 27.273438 L 57.347656 30.898438 L 56.363281 30.898438 L 56.363281 27.304688 C 56.363281 26.734375 56.253906 26.304688 56.035156 26.023438 C 55.816406 25.742188 55.480469 25.601562 55.035156 25.601562 C 54.503906 25.601562 54.082031 25.773438 53.769531 26.117188 C 53.464844 26.453125 53.316406 26.910156 53.316406 27.492188 L 53.316406 30.898438 L 52.316406 30.898438 L 52.316406 24.882812 L 53.316406 24.882812 L 53.316406 25.820312 C 53.542969 25.457031 53.820312 25.1875 54.144531 25.007812 C 54.464844 24.832031 54.835938 24.742188 55.253906 24.742188 C 55.941406 24.742188 56.460938 24.957031 56.816406 25.382812 C 57.167969 25.8125 57.347656 26.441406 57.347656 27.273438 Z M 63.289062 27.820312 C 63.289062 27.101562 63.136719 26.550781 62.835938 26.164062 C 62.542969 25.769531 62.132812 25.570312 61.601562 25.570312 C 61.070312 25.570312 60.652344 25.769531 60.351562 26.164062 C 60.058594 26.550781 59.914062 27.101562 59.914062 27.820312 C 59.914062 28.53125 60.058594 29.082031 60.351562 29.476562 C 60.652344 29.875 61.070312 30.070312 61.601562 30.070312 C 62.132812 30.070312 62.542969 29.875 62.835938 29.476562 C 63.136719 29.082031 63.289062 28.53125 63.289062 27.820312 Z M 64.273438 30.148438 C 64.273438 31.179688 64.042969 31.9375 63.585938 32.429688 C 63.136719 32.929688 62.445312 33.179688 61.507812 33.179688 C 61.152344 33.179688 60.820312 33.152344 60.507812 33.101562 C 60.203125 33.046875 59.90625 32.96875 59.617188 32.867188 L 59.617188 31.914062 C 59.90625 32.070312 60.195312 32.183594 60.476562 32.257812 C 60.757812 32.328125 61.046875 32.367188 61.351562 32.367188 C 61.996094 32.367188 62.480469 32.195312 62.804688 31.851562 C 63.125 31.515625 63.289062 31.011719 63.289062 30.335938 L 63.289062 29.835938 C 63.078125 30.191406 62.8125 30.457031 62.492188 30.632812 C 62.179688 30.8125 61.796875 30.898438 61.351562 30.898438 C 60.609375 30.898438 60.015625 30.617188 59.570312 30.054688 C 59.121094 29.492188 58.898438 28.75 58.898438 27.820312 C 58.898438 26.894531 59.121094 26.148438 59.570312 25.585938 C 60.015625 25.023438 60.609375 24.742188 61.351562 24.742188 C 61.796875 24.742188 62.179688 24.832031 62.492188 25.007812 C 62.8125 25.175781 63.078125 25.4375 63.289062 25.789062 L 63.289062 24.882812 L 64.273438 24.882812 Z M 73.765625 25.789062 L 73.765625 22.539062 L 74.75 22.539062 L 74.75 30.898438 L 73.765625 30.898438 L 73.765625 29.992188 C 73.554688 30.359375 73.289062 30.628906 72.96875 30.804688 C 72.65625 30.96875 72.273438 31.054688 71.828125 31.054688 C 71.109375 31.054688 70.519531 30.769531 70.0625 30.195312 C 69.601562 29.613281 69.375 28.847656 69.375 27.898438 C 69.375 26.953125 69.601562 26.191406 70.0625 25.617188 C 70.519531 25.035156 71.109375 24.742188 71.828125 24.742188 C 72.273438 24.742188 72.65625 24.832031 72.96875 25.007812 C 73.289062 25.175781 73.554688 25.4375 73.765625 25.789062 Z M 70.390625 27.898438 C 70.390625 28.628906 70.539062 29.203125 70.84375 29.617188 C 71.144531 30.023438 71.554688 30.226562 72.078125 30.226562 C 72.597656 30.226562 73.007812 30.023438 73.3125 29.617188 C 73.613281 29.203125 73.765625 28.628906 73.765625 27.898438 C 73.765625 27.171875 73.613281 26.601562 73.3125 26.195312 C 73.007812 25.78125 72.597656 25.570312 72.078125 25.570312 C 71.554688 25.570312 71.144531 25.78125 70.84375 26.195312 C 70.539062 26.601562 70.390625 27.171875 70.390625 27.898438 Z M 79.515625 27.867188 C 78.722656 27.867188 78.171875 27.960938 77.859375 28.148438 C 77.554688 28.335938 77.40625 28.648438 77.40625 29.085938 C 77.40625 29.429688 77.519531 29.707031 77.75 29.914062 C 77.976562 30.125 78.289062 30.226562 78.6875 30.226562 C 79.238281 30.226562 79.675781 30.035156 80 29.648438 C 80.332031 29.253906 80.5 28.738281 80.5 28.101562 L 80.5 27.867188 Z M 81.484375 27.460938 L 81.484375 30.898438 L 80.5 30.898438 L 80.5 29.992188 C 80.28125 30.359375 80 30.628906 79.65625 30.804688 C 79.320312 30.96875 78.910156 31.054688 78.421875 31.054688 C 77.804688 31.054688 77.316406 30.882812 76.953125 30.539062 C 76.585938 30.195312 76.40625 29.734375 76.40625 29.148438 C 76.40625 28.472656 76.628906 27.960938 77.078125 27.617188 C 77.535156 27.273438 78.21875 27.101562 79.125 27.101562 L 80.5 27.101562 L 80.5 27.007812 C 80.5 26.550781 80.347656 26.195312 80.046875 25.945312 C 79.753906 25.695312 79.335938 25.570312 78.796875 25.570312 C 78.453125 25.570312 78.113281 25.613281 77.78125 25.695312 C 77.457031 25.78125 77.144531 25.90625 76.84375 26.070312 L 76.84375 25.164062 C 77.207031 25.019531 77.5625 24.914062 77.90625 24.851562 C 78.25 24.78125 78.578125 24.742188 78.890625 24.742188 C 79.765625 24.742188 80.414062 24.96875 80.84375 25.414062 C 81.269531 25.863281 81.484375 26.546875 81.484375 27.460938 Z M 84.503906 23.179688 L 84.503906 24.882812 L 86.535156 24.882812 L 86.535156 25.648438 L 84.503906 25.648438 L 84.503906 28.914062 C 84.503906 29.40625 84.570312 29.722656 84.707031 29.867188 C 84.839844 30.003906 85.113281 30.070312 85.519531 30.070312 L 86.535156 30.070312 L 86.535156 30.898438 L 85.519531 30.898438 C 84.757812 30.898438 84.230469 30.757812 83.941406 30.476562 C 83.648438 30.1875 83.503906 29.664062 83.503906 28.914062 L 83.503906 25.648438 L 82.785156 25.648438 L 82.785156 24.882812 L 83.503906 24.882812 L 83.503906 23.179688 Z M 90.570312 27.867188 C 89.777344 27.867188 89.226562 27.960938 88.914062 28.148438 C 88.609375 28.335938 88.460938 28.648438 88.460938 29.085938 C 88.460938 29.429688 88.574219 29.707031 88.804688 29.914062 C 89.03125 30.125 89.34375 30.226562 89.742188 30.226562 C 90.292969 30.226562 90.730469 30.035156 91.054688 29.648438 C 91.386719 29.253906 91.554688 28.738281 91.554688 28.101562 L 91.554688 27.867188 Z M 92.539062 27.460938 L 92.539062 30.898438 L 91.554688 30.898438 L 91.554688 29.992188 C 91.335938 30.359375 91.054688 30.628906 90.710938 30.804688 C 90.375 30.96875 89.964844 31.054688 89.476562 31.054688 C 88.859375 31.054688 88.371094 30.882812 88.007812 30.539062 C 87.640625 30.195312 87.460938 29.734375 87.460938 29.148438 C 87.460938 28.472656 87.683594 27.960938 88.132812 27.617188 C 88.589844 27.273438 89.273438 27.101562 90.179688 27.101562 L 91.554688 27.101562 L 91.554688 27.007812 C 91.554688 26.550781 91.402344 26.195312 91.101562 25.945312 C 90.808594 25.695312 90.390625 25.570312 89.851562 25.570312 C 89.507812 25.570312 89.167969 25.613281 88.835938 25.695312 C 88.511719 25.78125 88.199219 25.90625 87.898438 26.070312 L 87.898438 25.164062 C 88.261719 25.019531 88.617188 24.914062 88.960938 24.851562 C 89.304688 24.78125 89.632812 24.742188 89.945312 24.742188 C 90.820312 24.742188 91.46875 24.96875 91.898438 25.414062 C 92.324219 25.863281 92.539062 26.546875 92.539062 27.460938 Z M 93.546875 30.898438 "/>
<path style="fill-rule:nonzero;fill:rgb(24.705882%,31.764706%,70.980392%);fill-opacity:0.7;stroke-width:1;stroke-linecap:butt;stroke-linejoin:miter;stroke:rgb(24.705882%,31.764706%,70.980392%);stroke-opacity:0.8;stroke-miterlimit:4;" d="M 0 22 L 12 22 L 12 34 L 0 34 Z M 0 22 " transform="matrix(0.75,0,0,0.75,7.5,22.5)"/>
<path style=" stroke:none;fill-rule:nonzero;fill:rgb(0%,0%,0%);fill-opacity:0.87;" d="M 22.421875 39.523438 L 22.421875 45.757812 L 23.71875 45.757812 C 24.832031 45.757812 25.644531 45.507812 26.15625 45.007812 C 26.664062 44.507812 26.921875 43.71875 26.921875 42.632812 C 26.921875 41.5625 26.664062 40.773438 26.15625 40.273438 C 25.644531 39.773438 24.832031 39.523438 23.71875 39.523438 Z M 21.328125 38.632812 L 23.5625 38.632812 C 25.113281 38.632812 26.253906 38.957031 26.984375 39.601562 C 27.710938 40.25 28.078125 41.257812 28.078125 42.632812 C 28.078125 44.019531 27.707031 45.035156 26.96875 45.679688 C 26.238281 46.328125 25.101562 46.648438 23.5625 46.648438 L 21.328125 46.648438 Z M 34.90625 43.398438 L 34.90625 43.882812 L 30.359375 43.882812 C 30.398438 44.5625 30.601562 45.078125 30.96875 45.429688 C 31.332031 45.785156 31.84375 45.960938 32.5 45.960938 C 32.882812 45.960938 33.253906 45.914062 33.609375 45.820312 C 33.960938 45.726562 34.316406 45.59375 34.671875 45.414062 L 34.671875 46.335938 C 34.316406 46.492188 33.953125 46.609375 33.578125 46.679688 C 33.203125 46.761719 32.828125 46.804688 32.453125 46.804688 C 31.484375 46.804688 30.71875 46.53125 30.15625 45.976562 C 29.601562 45.414062 29.328125 44.65625 29.328125 43.695312 C 29.328125 42.71875 29.59375 41.941406 30.125 41.367188 C 30.65625 40.785156 31.375 40.492188 32.28125 40.492188 C 33.082031 40.492188 33.71875 40.753906 34.1875 41.273438 C 34.664062 41.796875 34.90625 42.503906 34.90625 43.398438 Z M 33.90625 43.101562 C 33.90625 42.5625 33.753906 42.128906 33.453125 41.804688 C 33.160156 41.484375 32.769531 41.320312 32.28125 41.320312 C 31.726562 41.320312 31.285156 41.476562 30.953125 41.789062 C 30.628906 42.101562 30.441406 42.539062 30.390625 43.101562 Z M 35.816406 40.632812 L 36.863281 40.632812 L 38.738281 45.679688 L 40.628906 40.632812 L 41.675781 40.632812 L 39.410156 46.648438 L 38.066406 46.648438 Z M 43.167969 45.289062 L 44.308594 45.289062 L 44.308594 46.648438 L 43.167969 46.648438 Z M 53.992188 41.539062 L 53.992188 38.289062 L 54.976562 38.289062 L 54.976562 46.648438 L 53.992188 46.648438 L 53.992188 45.742188 C 53.78125 46.109375 53.515625 46.378906 53.195312 46.554688 C 52.882812 46.71875 52.5 46.804688 52.054688 46.804688 C 51.335938 46.804688 50.746094 46.519531 50.289062 45.945312 C 49.828125 45.363281 49.601562 44.597656 49.601562 43.648438 C 49.601562 42.703125 49.828125 41.941406 50.289062 41.367188 C 50.746094 40.785156 51.335938 40.492188 52.054688 40.492188 C 52.5 40.492188 52.882812 40.582031 53.195312 40.757812 C 53.515625 40.925781 53.78125 41.1875 53.992188 41.539062 Z M 50.617188 43.648438 C 50.617188 44.378906 50.765625 44.953125 51.070312 45.367188 C 51.371094 45.773438 51.78125 45.976562 52.304688 45.976562 C 52.824219 45.976562 53.234375 45.773438 53.539062 45.367188 C 53.839844 44.953125 53.992188 44.378906 53.992188 43.648438 C 53.992188 42.921875 53.839844 42.351562 53.539062 41.945312 C 53.234375 41.53125 52.824219 41.320312 52.304688 41.320312 C 51.78125 41.320312 51.371094 41.53125 51.070312 41.945312 C 50.765625 42.351562 50.617188 42.921875 50.617188 43.648438 Z M 59.738281 43.617188 C 58.945312 43.617188 58.394531 43.710938 58.082031 43.898438 C 57.777344 44.085938 57.628906 44.398438 57.628906 44.835938 C 57.628906 45.179688 57.742188 45.457031 57.972656 45.664062 C 58.199219 45.875 58.511719 45.976562 58.910156 45.976562 C 59.460938 45.976562 59.898438 45.785156 60.222656 45.398438 C 60.554688 45.003906 60.722656 44.488281 60.722656 43.851562 L 60.722656 43.617188 Z M 61.707031 43.210938 L 61.707031 46.648438 L 60.722656 46.648438 L 60.722656 45.742188 C 60.503906 46.109375 60.222656 46.378906 59.878906 46.554688 C 59.542969 46.71875 59.132812 46.804688 58.644531 46.804688 C 58.027344 46.804688 57.539062 46.632812 57.175781 46.289062 C 56.808594 45.945312 56.628906 45.484375 56.628906 44.898438 C 56.628906 44.222656 56.851562 43.710938 57.300781 43.367188 C 57.757812 43.023438 58.441406 42.851562 59.347656 42.851562 L 60.722656 42.851562 L 60.722656 42.757812 C 60.722656 42.300781 60.570312 41.945312 60.269531 41.695312 C 59.976562 41.445312 59.558594 41.320312 59.019531 41.320312 C 58.675781 41.320312 58.335938 41.363281 58.003906 41.445312 C 57.679688 41.53125 57.367188 41.65625 57.066406 41.820312 L 57.066406 40.914062 C 57.429688 40.769531 57.785156 40.664062 58.128906 40.601562 C 58.472656 40.53125 58.800781 40.492188 59.113281 40.492188 C 59.988281 40.492188 60.636719 40.71875 61.066406 41.164062 C 61.492188 41.613281 61.707031 42.296875 61.707031 43.210938 Z M 64.730469 38.929688 L 64.730469 40.632812 L 66.761719 40.632812 L 66.761719 41.398438 L 64.730469 41.398438 L 64.730469 44.664062 C 64.730469 45.15625 64.796875 45.472656 64.933594 45.617188 C 65.066406 45.753906 65.339844 45.820312 65.746094 45.820312 L 66.761719 45.820312 L 66.761719 46.648438 L 65.746094 46.648438 C 64.984375 46.648438 64.457031 46.507812 64.167969 46.226562 C 63.875 45.9375 63.730469 45.414062 63.730469 44.664062 L 63.730469 41.398438 L 63.011719 41.398438 L 63.011719 40.632812 L 63.730469 40.632812 L 63.730469 38.929688 Z M 70.792969 43.617188 C 70 43.617188 69.449219 43.710938 69.136719 43.898438 C 68.832031 44.085938 68.683594 44.398438 68.683594 44.835938 C 68.683594 45.179688 68.796875 45.457031 69.027344 45.664062 C 69.253906 45.875 69.566406 45.976562 69.964844 45.976562 C 70.515625 45.976562 70.953125 45.785156 71.277344 45.398438 C 71.609375 45.003906 71.777344 44.488281 71.777344 43.851562 L 71.777344 43.617188 Z M 72.761719 43.210938 L 72.761719 46.648438 L 71.777344 46.648438 L 71.777344 45.742188 C 71.558594 46.109375 71.277344 46.378906 70.933594 46.554688 C 70.597656 46.71875 70.1875 46.804688 69.699219 46.804688 C 69.082031 46.804688 68.59375 46.632812 68.230469 46.289062 C 67.863281 45.945312 67.683594 45.484375 67.683594 44.898438 C 67.683594 44.222656 67.90625 43.710938 68.355469 43.367188 C 68.8125 43.023438 69.496094 42.851562 70.402344 42.851562 L 71.777344 42.851562 L 71.777344 42.757812 C 71.777344 42.300781 71.625 41.945312 71.324219 41.695312 C 71.03125 41.445312 70.613281 41.320312 70.074219 41.320312 C 69.730469 41.320312 69.390625 41.363281 69.058594 41.445312 C 68.734375 41.53125 68.421875 41.65625 68.121094 41.820312 L 68.121094 40.914062 C 68.484375 40.769531 68.839844 40.664062 69.183594 40.601562 C 69.527344 40.53125 69.855469 40.492188 70.167969 40.492188 C 71.042969 40.492188 71.691406 40.71875 72.121094 41.164062 C 72.546875 41.613281 72.761719 42.296875 72.761719 43.210938 Z M 73.769531 46.648438 "/>
</g>
</svg>
